<svg xmlns="http://www.w3.org/2000/svg" width="50.53" height="29.474" viewBox="0 0 50.53 29.474">
  <path id="filter-left" d="M52.53,31.368a2.105,2.105,0,0,0-2.105-2.105H37.792a2.105,2.105,0,1,0,0,4.211H50.425A2.105,2.105,0,0,0,52.53,31.368Zm0-12.632a2.105,2.105,0,0,0-2.105-2.105H20.949a2.105,2.105,0,1,0,0,4.211H50.425A2.105,2.105,0,0,0,52.53,18.737Zm0-12.632A2.105,2.105,0,0,0,50.425,4H4.105a2.105,2.105,0,1,0,0,4.211H50.425A2.105,2.105,0,0,0,52.53,6.105Z" transform="translate(-2 -4)" fill="#fff"/>
</svg>
