<svg xmlns="http://www.w3.org/2000/svg" width="137.715" height="137.714" viewBox="0 0 137.715 137.714">
  <g id="Grupo_497" data-name="Grupo 497" transform="translate(-293.213 -1865.071)">
    <ellipse id="Elipse_26" data-name="Elipse 26" cx="68.857" cy="68.857" rx="68.857" ry="68.857" transform="translate(293.213 1865.071)" fill="#24b34d"/>
    <g id="Grupo_433" data-name="Grupo 433" transform="translate(-288.934 -69.428)">
      <g id="Grupo_106" data-name="Grupo 106" transform="translate(620.147 1972.499)">
        <path id="Trazado_63" data-name="Trazado 63" d="M300.016,3700.914v20.406a10.624,10.624,0,0,1-10.628,10.629H268.982v-12.644a6.524,6.524,0,1,1,0-6.811v-11.581h11.355a6.45,6.45,0,0,0-2.643,5.231,6.517,6.517,0,1,0,10.406-5.231Z" transform="translate(-237.947 -3669.866)" fill="none" stroke="#fff" stroke-linecap="round" stroke-linejoin="round" stroke-width="2.5"/>
        <path id="Trazado_64" data-name="Trazado 64" d="M257.041,3715.977a6.517,6.517,0,0,0,12.07,3.411v12.644H248.705a10.625,10.625,0,0,1-10.629-10.628V3701h12.643a6.525,6.525,0,1,1,6.393,0h12v11.581a6.512,6.512,0,0,0-12.07,3.4Z" transform="translate(-238.076 -3669.949)" fill="none" stroke="#fff" stroke-linecap="round" stroke-linejoin="round" stroke-width="2.5"/>
        <path id="Trazado_65" data-name="Trazado 65" d="M281.264,3685.728A6.517,6.517,0,0,1,269.112,3689v12.126h-12a6.511,6.511,0,1,0-6.393,0H238.076V3680.72a10.637,10.637,0,0,1,10.629-10.642h20.406v12.377a6.517,6.517,0,0,1,12.153,3.272Z" transform="translate(-238.076 -3670.078)" fill="none" stroke="#fff" stroke-linecap="round" stroke-linejoin="round" stroke-width="2.5"/>
        <path id="Trazado_66" data-name="Trazado 66" d="M299.934,3701.126H288.018a6.525,6.525,0,1,1-7.763,0H268.9V3689a6.517,6.517,0,1,0,0-6.544v-12.377h20.405a10.636,10.636,0,0,1,10.628,10.642Z" transform="translate(-237.864 -3670.078)" fill="none" stroke="#fff" stroke-linecap="round" stroke-linejoin="round" stroke-width="2.5"/>
      </g>
    </g>
  </g>
</svg>
