<svg xmlns="http://www.w3.org/2000/svg" width="131.191" height="131.191" viewBox="0 0 131.191 131.191">
  <g id="Grupo_502" data-name="Grupo 502" transform="translate(-1278 -1868.071)">
    <g id="Grupo_458" data-name="Grupo 458" transform="translate(0 -69.929)">
      <ellipse id="Elipse_20" data-name="Elipse 20" cx="65.596" cy="65.596" rx="65.596" ry="65.596" transform="translate(1278 1938)" fill="#24b34d"/>
      <g id="Grupo_444" data-name="Grupo 444" transform="translate(-61.874 -219.984)">
        <g id="Grupo_41" data-name="Grupo 41" transform="translate(1369.874 2186.984)">
          <g id="Grupo_34" data-name="Grupo 34" transform="translate(0 37.935)">
            <g id="Grupo_31" data-name="Grupo 31" transform="translate(17.232)">
              <path id="Trazado_14" data-name="Trazado 14" d="M907.862,1482.883a1.014,1.014,0,0,1-1-1.157l1.665-11.66-7.71-7.829a1.014,1.014,0,0,1,.521-1.7l11.085-2.263,5.478-9.528a.928.928,0,0,1,.776-.512l.063,0a1.041,1.041,0,0,1,.935.541l5.227,9.86,11.174,2.021a1.013,1.013,0,0,1,.521,1.729l-8.291,7.935,2.014,11.374a1.013,1.013,0,0,1-1.471,1.072l-10.078-5.335-10.446,5.341A1,1,0,0,1,907.862,1482.883Zm6.088-23.207a1.018,1.018,0,0,1-.677.488l-9.7,1.981,6.753,6.857a1.02,1.02,0,0,1,.281.855l-1.459,10.22,9.175-4.691a1.007,1.007,0,0,1,.935.007l8.71,4.612-1.747-9.866a1.015,1.015,0,0,1,.3-.91l7.246-6.934-9.7-1.755a1.009,1.009,0,0,1-.714-.524l-4.6-8.673Z" transform="translate(-900.524 -1448.23)" fill="#fff"/>
            </g>
            <g id="Grupo_32" data-name="Grupo 32" transform="translate(49.988 12.78)">
              <path id="Trazado_15" data-name="Trazado 15" d="M946.428,1478.065a1.013,1.013,0,0,1,0-2.027h16.616l-3.209-3.373a1.013,1.013,0,0,1-.009-1.386l3.257-3.508h-8.839a1.014,1.014,0,0,1,0-2.028h11.163a1.014,1.014,0,0,1,.743,1.7l-4.189,4.512,4.18,4.395a1.013,1.013,0,0,1-.733,1.712Z" transform="translate(-945.415 -1465.744)" fill="#fff"/>
            </g>
            <g id="Grupo_33" data-name="Grupo 33" transform="translate(0 12.78)">
              <path id="Trazado_16" data-name="Trazado 16" d="M877.922,1478.065a1.013,1.013,0,0,1-.734-1.711l4.18-4.4-4.188-4.512a1.013,1.013,0,0,1,.742-1.7h11.163a1.014,1.014,0,0,1,0,2.028h-8.84l3.257,3.507a1.014,1.014,0,0,1-.009,1.387l-3.209,3.373H896.9a1.013,1.013,0,0,1,0,2.027Z" transform="translate(-876.909 -1465.744)" fill="#fff"/>
            </g>
          </g>
          <g id="Grupo_35" data-name="Grupo 35" transform="translate(44.008 15.399)">
            <path id="Trazado_17" data-name="Trazado 17" d="M951.333,1447.243a.385.385,0,0,1-.385-.4l.186-4.291a.983.983,0,0,1,1-.956h1.933a2.8,2.8,0,0,0,2.8-2.8v-15.849a3.62,3.62,0,0,0-3.616-3.616H938.22a.993.993,0,1,1,0-1.985h15.045a5.594,5.594,0,0,1,5.588,5.588V1438.8a4.789,4.789,0,0,1-4.784,4.784h-.991l-.146,3.3a.384.384,0,0,1-.385.367Z" transform="translate(-937.22 -1417.346)" fill="#fff"/>
          </g>
          <g id="Grupo_36" data-name="Grupo 36" transform="translate(22.02 24.766)">
            <path id="Trazado_18" data-name="Trazado 18" d="M931.644,1450.617a.31.31,0,0,1-.309-.309v-14.524a3.62,3.62,0,0,0-3.616-3.615H912.688a3.62,3.62,0,0,0-3.616,3.615v14.524a.31.31,0,0,1-.309.309H907.4a.31.31,0,0,1-.309-.309v-14.524a5.608,5.608,0,0,1,5.6-5.6h15.045a5.6,5.6,0,0,1,5.588,5.6v14.524a.31.31,0,0,1-.31.309Z" transform="translate(-907.086 -1430.183)" fill="#fff"/>
          </g>
          <g id="Grupo_37" data-name="Grupo 37" transform="translate(4.579 15.399)">
            <path id="Trazado_19" data-name="Trazado 19" d="M889.32,1447.243a.189.189,0,0,1-.19-.181l-.177-3.482h-.971a4.8,4.8,0,0,1-4.8-4.8v-15.835a5.607,5.607,0,0,1,5.6-5.6h15.045a.972.972,0,0,1,.7.3,1,1,0,0,1,.281.735,1.089,1.089,0,0,1-1.129.951h-14.9a3.62,3.62,0,0,0-3.616,3.616V1438.8a2.809,2.809,0,0,0,2.813,2.8h1.933a.987.987,0,0,1,.987.953l.212,4.5a.19.19,0,0,1-.19.195Z" transform="translate(-883.184 -1417.346)" fill="#fff"/>
          </g>
          <g id="Grupo_38" data-name="Grupo 38" transform="translate(28.46 9.368)">
            <path id="Trazado_20" data-name="Trazado 20" d="M922.643,1422.53a6.725,6.725,0,1,1,6.717-6.718A6.733,6.733,0,0,1,922.643,1422.53Zm0-11.464a4.739,4.739,0,1,0,4.733,4.746A4.751,4.751,0,0,0,922.643,1411.065Z" transform="translate(-915.912 -1409.08)" fill="#fff"/>
          </g>
          <g id="Grupo_39" data-name="Grupo 39" transform="translate(48.093)">
            <path id="Trazado_21" data-name="Trazado 21" d="M949.536,1409.692a6.725,6.725,0,1,1,6.731-6.717A6.725,6.725,0,0,1,949.536,1409.692Zm0-11.463a4.739,4.739,0,1,0,4.746,4.746A4.745,4.745,0,0,0,949.536,1398.228Z" transform="translate(-942.818 -1396.242)" fill="#fff"/>
          </g>
          <g id="Grupo_40" data-name="Grupo 40" transform="translate(13.266)">
            <path id="Trazado_22" data-name="Trazado 22" d="M901.82,1409.692a6.725,6.725,0,1,1,6.718-6.717A6.732,6.732,0,0,1,901.82,1409.692Zm0-11.463a4.739,4.739,0,1,0,4.733,4.746A4.752,4.752,0,0,0,901.82,1398.228Z" transform="translate(-895.089 -1396.242)" fill="#fff"/>
          </g>
        </g>
      </g>
    </g>
  </g>
</svg>
