<svg xmlns="http://www.w3.org/2000/svg" width="134.691" height="134.691" viewBox="0 0 134.691 134.691">
  <g id="Grupo_498" data-name="Grupo 498" transform="translate(-485 -1866.071)">
    <g id="Grupo_462" data-name="Grupo 462" transform="translate(0 -69.929)">
      <ellipse id="Elipse_35" data-name="Elipse 35" cx="67.345" cy="67.345" rx="67.345" ry="67.345" transform="translate(485 1936)" fill="#24b34d"/>
      <g id="Grupo_455" data-name="Grupo 455" transform="translate(35.512 1358.213)">
        <path id="Trazado_267" data-name="Trazado 267" d="M535.714,635.168l-.008-.008a2.289,2.289,0,0,0-1.615-.666H499.439a2.289,2.289,0,0,0-2.29,2.292v2.7h-2.795a1.164,1.164,0,0,0-1.163,1.161v2.7h-4.864a1.161,1.161,0,0,0-1.161,1.161v3.859a1.163,1.163,0,0,0,1.161,1.163H545.2a1.163,1.163,0,0,0,1.161-1.163v-3.859a1.161,1.161,0,0,0-1.161-1.161h-4.864v-2.7a1.163,1.163,0,0,0-1.161-1.161h-2.793v-2.7A2.28,2.28,0,0,0,535.714,635.168Zm2.3,6.646v2.694a1.162,1.162,0,0,0,1.161,1.163h4.864v1.535H489.491v-1.535h4.864a1.162,1.162,0,0,0,1.161-1.163v-2.694h2.795a1.163,1.163,0,0,0,1.161-1.165l-.033-3.831,34.618-.006v3.837a1.164,1.164,0,0,0,1.163,1.165Z" transform="translate(10.284 30.772)" fill="#fff"/>
        <path id="Trazado_268" data-name="Trazado 268" d="M518.828,641.579a4.694,4.694,0,0,0,6.442,6.764l13-10.115a4.68,4.68,0,0,0-4.282-8.162l-13.523-17.388a4.676,4.676,0,0,0-6.854-6.147l-13,10.111a4.686,4.686,0,0,0,4.961,7.9l4.278,5.5-31.536,23.021a2.046,2.046,0,0,0-.811,1.353,1.933,1.933,0,0,0,0,.524,2,2,0,0,0,.4,1l4.049,5.206a1.971,1.971,0,0,0,.371.359,1.994,1.994,0,0,0,1.007.408,1.513,1.513,0,0,0,.214.012,2.042,2.042,0,0,0,1.3-.466l30.084-24.893Zm15.313-9.053.06-.035h0a2.359,2.359,0,0,1,2.638,3.9l-13,10.113a2.369,2.369,0,1,1-2.91-3.738l13-10.113A1.782,1.782,0,0,1,534.142,632.526Zm-29.02-10.446-.173.136a2.37,2.37,0,1,1-2.908-3.742l13-10.113h0a2.363,2.363,0,0,1,1.45-.5,2.414,2.414,0,0,1,.3.021,2.337,2.337,0,0,1,1.576.893,2.369,2.369,0,0,1-.19,3.1l-.054.058a1.84,1.84,0,0,1-.171.165Zm2.351,1.116,8.573-6.671,2.785-2.166,13.131,16.887-11.355,8.828Zm3.762,13.42L483.6,659.482l-3.672-4.721L508.915,633.6l2.366-1.728,2.226,2.861Z" transform="translate(0 0)" fill="#fff"/>
      </g>
    </g>
  </g>
</svg>
