<svg xmlns="http://www.w3.org/2000/svg" width="136.849" height="136.849" viewBox="0 0 136.849 136.849">
  <g id="Grupo_500" data-name="Grupo 500" transform="translate(-892 -1865.071)">
    <g id="Grupo_460" data-name="Grupo 460" transform="translate(0 -69.929)">
      <ellipse id="Elipse_13" data-name="Elipse 13" cx="68.424" cy="68.424" rx="68.424" ry="68.424" transform="translate(892 1935)" fill="#24b34d"/>
      <g id="Grupo_457" data-name="Grupo 457" transform="translate(838.778 1491.583)">
        <path id="Trazado_270" data-name="Trazado 270" d="M103.989,501.822a26.78,26.78,0,0,0,.807,6.869,95.828,95.828,0,0,0,5.138,13.793,3.685,3.685,0,0,0-.686,2.1,3.69,3.69,0,0,1,0,4.975,3.782,3.782,0,0,0,1.2,2.776,3.71,3.71,0,0,0-.866,2.347,4.108,4.108,0,0,0,4.2,3.972l15.174.2h.061a4.408,4.408,0,0,0,3.07-1.218,3.717,3.717,0,0,0-.043-5.427,3.7,3.7,0,0,0,.866-2.347,3.7,3.7,0,0,1,0-4.975,3.731,3.731,0,0,0-.953-2.514,94.924,94.924,0,0,0,5.083-13.683,26.71,26.71,0,0,0,.807-6.863,16.927,16.927,0,0,0-33.854,0Zm26.3,33.976a1.744,1.744,0,0,1-1.306.489l-15.176-.2a1.556,1.556,0,0,1-1.67-1.383,1.41,1.41,0,0,1,1.149-1.267,1.282,1.282,0,0,0-.12-2.5,1.5,1.5,0,0,1-1.359-1.351,1.4,1.4,0,0,1,1.076-1.245,1.282,1.282,0,0,0,.01-2.444,1.427,1.427,0,0,1-1.086-1.288A1.11,1.11,0,0,1,112,524h17.963a1.206,1.206,0,0,1,.377.854,1.4,1.4,0,0,1-1.072,1.241,1.281,1.281,0,0,0-.014,2.444,1.424,1.424,0,0,1,1.086,1.288A1.4,1.4,0,0,1,129.2,531.1a1.282,1.282,0,0,0,.12,2.5,1.5,1.5,0,0,1,1.355,1.353A1.189,1.189,0,0,1,130.292,535.8Zm-9.375-48.338a14.38,14.38,0,0,1,14.365,14.363,24.372,24.372,0,0,1-.735,6.258,94.359,94.359,0,0,1-4.989,13.361H112.276a94.34,94.34,0,0,1-4.989-13.355,24.356,24.356,0,0,1-.735-6.264A14.379,14.379,0,0,1,120.917,487.459Z" transform="translate(1.704 9.142)" fill="#fff"/>
        <path id="Trazado_271" data-name="Trazado 271" d="M104.888,478.768a1.493,1.493,0,1,0-2.345,1.848l7.637,9.7a1.506,1.506,0,0,0,1.177.57h.051a1.5,1.5,0,0,0,.87-.32,1.5,1.5,0,0,0,.251-2.1Zm6.6,10.79a.212.212,0,0,1-.126.047.2.2,0,0,1-.173-.083l-7.641-9.7a.212.212,0,0,1-.043-.155.216.216,0,0,1,.081-.141.208.208,0,0,1,.13-.045h.026a.215.215,0,0,1,.143.081l7.639,9.7a.213.213,0,0,1-.035.3Z" transform="translate(0 2.681)" fill="#fff"/>
        <path id="Trazado_272" data-name="Trazado 272" d="M118,490.469h0a1.475,1.475,0,0,0,.825.249h.051a1.5,1.5,0,0,0,1.194-.666l6.3-9.477a1.494,1.494,0,0,0-2.489-1.654l-6.3,9.476a1.494,1.494,0,0,0,.414,2.072Zm.652-1.361,6.3-9.479a.212.212,0,0,1,.136-.088.2.2,0,0,1,.157.029.2.2,0,0,1,.092.137.2.2,0,0,1-.029.159l-6.3,9.477a.213.213,0,0,1-.171.094.22.22,0,0,1-.124-.035.213.213,0,0,1-.059-.295Z" transform="translate(14.568 2.736)" fill="#fff"/>
        <path id="Trazado_273" data-name="Trazado 273" d="M113.152,490.992h.112a1.5,1.5,0,0,0,1.444-1.43l.53-12.589a1.5,1.5,0,0,0-1.428-1.556,1.51,1.51,0,0,0-1.072.389,1.479,1.479,0,0,0-.485,1.041l-.53,12.589a1.49,1.49,0,0,0,1.43,1.556Zm-.149-1.5.53-12.589a.2.2,0,0,1,.069-.149.216.216,0,0,1,.151-.055.207.207,0,0,1,.149.071.2.2,0,0,1,.055.151l-.53,12.587a.215.215,0,0,1-.212.2h-.01a.213.213,0,0,1-.147-.069A.2.2,0,0,1,113,489.491Z" transform="translate(9.159 0)" fill="#fff"/>
        <path id="Trazado_274" data-name="Trazado 274" d="M108.633,496.7h0a1.414,1.414,0,0,0,1.495-1.308,5.886,5.886,0,0,1,.169-1.076,4.965,4.965,0,0,1,3.94-3.585,6.609,6.609,0,0,1,1.253-.187,1.406,1.406,0,0,0-.061-2.811c-2.636.057-7.721,1.689-8.106,7.472A1.4,1.4,0,0,0,108.633,496.7Z" transform="translate(4.915 11.874)" fill="#fff"/>
      </g>
    </g>
  </g>
</svg>
