<svg xmlns="http://www.w3.org/2000/svg" width="138.087" height="138.087" viewBox="0 0 138.087 138.087">
  <g id="Grupo_496" data-name="Grupo 496" transform="translate(-108 -1864.071)">
    <ellipse id="Elipse_29" data-name="Elipse 29" cx="69.044" cy="69.043" rx="69.044" ry="69.043" transform="translate(108 1864.071)" fill="#24b34d"/>
    <g id="Grupo_453" data-name="Grupo 453" transform="translate(-268.091 1228.338)">
      <path id="Trazado_263" data-name="Trazado 263" d="M428.3,729.6a26.867,26.867,0,0,0,11.259,5.089v3.41a3.891,3.891,0,0,0,3.892,3.883h4.815a3.891,3.891,0,0,0,3.892-3.883V734.7a25.629,25.629,0,0,0,9.5-3.668,15.588,15.588,0,0,0,7.461-13.3,13.449,13.449,0,0,0-3.007-9.133c-3.063-3.657-7.755-6.032-13.953-7.078v-5.8c.412.289.816.6,1.214.948a4.7,4.7,0,0,0,3.052,1.1,5.1,5.1,0,0,0,2.176-.6,1.076,1.076,0,0,0,.159-.083l5.4-3.388a3.329,3.329,0,0,0,1.714-2.83,3.216,3.216,0,0,0-1.062-2.431,22.876,22.876,0,0,0-12.653-7.287v-4.062a3.9,3.9,0,0,0-3.892-3.9h-4.815a3.9,3.9,0,0,0-3.892,3.9v3.89a24.824,24.824,0,0,0-6.012,1.824c-6.946,3.164-10.408,8.01-10.287,14.4a14.017,14.017,0,0,0,2.846,8.385c2.839,3.809,7.361,6.307,13.453,7.432v8.34a19.72,19.72,0,0,1-5.514-4.3,3.813,3.813,0,0,0-3.092-1.483,5.725,5.725,0,0,0-1.947.524.448.448,0,0,0-.081.038c-.018.011-.049.025-.065.036l-4.907,2.877a3.324,3.324,0,0,0-1.017,5.207A25.934,25.934,0,0,0,428.3,729.6Zm-3.074-8.367,4.849-2.846a4.64,4.64,0,0,1,.878-.287,1.292,1.292,0,0,1,1.129.545c.022.029.047.06.072.087a20.79,20.79,0,0,0,8.246,5.727,1.264,1.264,0,0,0,1.685-1.19V711.952a1.27,1.27,0,0,0-1.071-1.248c-5.956-.919-10.291-3.146-12.888-6.628a11.387,11.387,0,0,1-2.339-6.915c-.1-5.369,2.778-9.314,8.81-12.057a22.822,22.822,0,0,1,6.4-1.792,1.261,1.261,0,0,0,1.091-1.25v-4.97a1.369,1.369,0,0,1,1.367-1.371h4.815a1.37,1.37,0,0,1,1.367,1.371v5.1a1.269,1.269,0,0,0,1.046,1.248,20.56,20.56,0,0,1,12.277,6.715,1.378,1.378,0,0,0,.1.1.7.7,0,0,1,.294.574c0,.13-.007.4-.536.735l-5.337,3.352a3.411,3.411,0,0,1-1.04.327h0a2.177,2.177,0,0,1-1.432-.5,15.557,15.557,0,0,0-3.569-2.35,1.264,1.264,0,0,0-1.8,1.141v9.066a1.263,1.263,0,0,0,1.087,1.253c6.1.854,10.63,3,13.451,6.361a10.867,10.867,0,0,1,2.424,7.468,13.029,13.029,0,0,1-6.328,11.244,23.644,23.644,0,0,1-9.556,3.455,1.263,1.263,0,0,0-1.078,1.25V738.1a1.365,1.365,0,0,1-1.367,1.36h-4.815a1.364,1.364,0,0,1-1.367-1.36v-4.47a1.266,1.266,0,0,0-1.067-1.248,24.411,24.411,0,0,1-11.185-4.786,23.347,23.347,0,0,1-4.88-4.858,1.07,1.07,0,0,0-.087-.108.841.841,0,0,1-.253-.576C424.614,721.9,424.61,721.593,425.23,721.237Z" transform="translate(0)" fill="#fff"/>
      <path id="Trazado_264" data-name="Trazado 264" d="M434.173,682.859a1.264,1.264,0,0,0-1.721-1.176l-.372.143-.085.04c-2.929,1.4-3.534,3.453-3.525,4.927v0c.013,1.716.717,4.022,3.986,5.277a1.215,1.215,0,0,0,.453.083,1.26,1.26,0,0,0,1.264-1.259Zm-2.525,5.767A2.647,2.647,0,0,1,431,686.78a2.252,2.252,0,0,1,.652-1.649Z" transform="translate(7.916 10.424)" fill="#fff"/>
      <path id="Trazado_265" data-name="Trazado 265" d="M434.965,702.729a1.234,1.234,0,0,0,.683.2,1.272,1.272,0,0,0,.524-.114,10.675,10.675,0,0,0,1.188-.621,6.727,6.727,0,0,0,3.446-5.891c.016-1.943-.8-4.519-4.779-5.776a1.267,1.267,0,0,0-1.642,1.205v9.933A1.256,1.256,0,0,0,434.965,702.729Zm1.945-9.045a2.838,2.838,0,0,1,1.371,2.6,3.979,3.979,0,0,1-1.371,3.119Z" transform="translate(15.253 21.432)" fill="#fff"/>
    </g>
  </g>
</svg>
