<svg xmlns="http://www.w3.org/2000/svg" width="136.123" height="136.123" viewBox="0 0 136.123 136.123">
  <g id="Grupo_501" data-name="Grupo 501" transform="translate(-1087.511 -1865.071)">
    <g id="Grupo_459" data-name="Grupo 459" transform="translate(0 -69.929)">
      <ellipse id="Elipse_10" data-name="Elipse 10" cx="68.061" cy="68.061" rx="68.061" ry="68.061" transform="translate(1087.511 1935)" fill="#24b34d"/>
      <g id="Grupo_83" data-name="Grupo 83" transform="translate(1117.511 1976)">
        <g id="Grupo_61" data-name="Grupo 61" transform="translate(0 36.389)">
          <g id="Grupo_60" data-name="Grupo 60">
            <path id="Trazado_37" data-name="Trazado 37" d="M1085.373,3725.865a9.521,9.521,0,1,1,7.966-10.855A9.533,9.533,0,0,1,1085.373,3725.865Zm-2.4-15.653a6.315,6.315,0,1,0,7.2,5.284A6.322,6.322,0,0,0,1082.971,3710.211Z" transform="translate(-1074.408 -3706.932)" fill="#fff"/>
          </g>
        </g>
        <g id="Grupo_63" data-name="Grupo 63" transform="translate(17.822 16.487)">
          <g id="Grupo_62" data-name="Grupo 62">
            <path id="Trazado_38" data-name="Trazado 38" d="M1103.28,3705.867a9.521,9.521,0,1,1,7.967-10.855A9.532,9.532,0,0,1,1103.28,3705.867Zm-2.4-15.653a6.315,6.315,0,1,0,7.2,5.284A6.321,6.321,0,0,0,1100.878,3690.214Z" transform="translate(-1092.314 -3686.935)" fill="#fff"/>
          </g>
        </g>
        <g id="Grupo_65" data-name="Grupo 65" transform="translate(40.257 23.483)">
          <g id="Grupo_64" data-name="Grupo 64">
            <path id="Trazado_39" data-name="Trazado 39" d="M1125.823,3712.9a9.521,9.521,0,1,1,7.966-10.854A9.531,9.531,0,0,1,1125.823,3712.9Zm-2.4-15.652a6.315,6.315,0,1,0,7.2,5.284A6.322,6.322,0,0,0,1123.421,3697.243Z" transform="translate(-1114.857 -3693.963)" fill="#fff"/>
          </g>
        </g>
        <g id="Grupo_68" data-name="Grupo 68" transform="translate(0.006 36.393)">
          <g id="Grupo_67" data-name="Grupo 67">
            <g id="Grupo_66" data-name="Grupo 66">
              <path id="Trazado_40" data-name="Trazado 40" d="M1091.354,3710.5a9.517,9.517,0,0,0-16.829,7.4,9.52,9.52,0,1,0,16.829-7.4Zm-6.461,12.2a6.315,6.315,0,1,1-1.916-12.483,6.332,6.332,0,0,1,7.2,5.284A6.328,6.328,0,0,1,1084.893,3722.7Z" transform="translate(-1074.413 -3706.935)" fill="#fff"/>
            </g>
          </g>
        </g>
        <g id="Grupo_71" data-name="Grupo 71" transform="translate(17.825 16.491)">
          <g id="Grupo_70" data-name="Grupo 70">
            <g id="Grupo_69" data-name="Grupo 69">
              <path id="Trazado_41" data-name="Trazado 41" d="M1100.4,3687.05a9.522,9.522,0,0,0-7.966,10.854,9.41,9.41,0,0,0,1.909,4.41,9.289,9.289,0,0,0,2.373,2.154,9.447,9.447,0,0,0,6.572,1.4,9.52,9.52,0,0,0-2.888-18.82Zm6.791,12.763a6.289,6.289,0,0,1-8.307,2.215,6.319,6.319,0,0,1-3.28-4.61,6.315,6.315,0,1,1,12.483-1.916,6.049,6.049,0,0,1,.063,1.255A6.115,6.115,0,0,1,1107.186,3699.812Z" transform="translate(-1092.318 -3686.938)" fill="#fff"/>
            </g>
          </g>
        </g>
        <g id="Grupo_74" data-name="Grupo 74" transform="translate(40.261 23.48)">
          <g id="Grupo_73" data-name="Grupo 73">
            <g id="Grupo_72" data-name="Grupo 72">
              <path id="Trazado_42" data-name="Trazado 42" d="M1131.095,3696.734a9.91,9.91,0,0,0-2.618-1.847,9.522,9.522,0,0,0-12.625,4.37,9.458,9.458,0,0,0-.882,5.669,9.521,9.521,0,1,0,16.125-8.192Zm-5.757,12.99a6.32,6.32,0,0,1-7.2-5.284,5.987,5.987,0,0,1-.07-1.092,6.3,6.3,0,0,1,11.137-3.925,6.151,6.151,0,0,1,1.416,3.1A6.32,6.32,0,0,1,1125.338,3709.723Z" transform="translate(-1114.861 -3693.961)" fill="#fff"/>
            </g>
          </g>
        </g>
        <g id="Grupo_76" data-name="Grupo 76" transform="translate(53.876 0.001)">
          <g id="Grupo_75" data-name="Grupo 75">
            <path id="Trazado_43" data-name="Trazado 43" d="M1147.9,3672.9l-16.736,23.723a9.908,9.908,0,0,0-2.618-1.847l16.736-23.723a1.6,1.6,0,0,1,2.619,1.847Z" transform="translate(-1128.542 -3670.369)" fill="#fff"/>
          </g>
        </g>
        <g id="Grupo_78" data-name="Grupo 78" transform="translate(35.811 27.322)">
          <g id="Grupo_77" data-name="Grupo 77">
            <path id="Trazado_44" data-name="Trazado 44" d="M1115.83,3699.275a9.794,9.794,0,0,0-.924,3.071l-4.516-1.469a9.652,9.652,0,0,0,.968-3.057Z" transform="translate(-1110.39 -3697.821)" fill="#fff"/>
          </g>
        </g>
        <g id="Grupo_80" data-name="Grupo 80" transform="translate(14.546 31.866)">
          <g id="Grupo_79" data-name="Grupo 79">
            <path id="Trazado_45" data-name="Trazado 45" d="M1096.7,3704.542l-5.273,5.933a9.422,9.422,0,0,0-2.4-2.118l5.3-5.97A9.29,9.29,0,0,0,1096.7,3704.542Z" transform="translate(-1089.023 -3702.387)" fill="#fff"/>
          </g>
        </g>
        <g id="Grupo_82" data-name="Grupo 82" transform="translate(57.369)">
          <g id="Grupo_81" data-name="Grupo 81">
            <path id="Trazado_46" data-name="Trazado 46" d="M1148.946,3687.247a1.6,1.6,0,0,1-1.827-1.341l-1.858-12.107-11.364,1.744a1.6,1.6,0,1,1-.486-3.167l12.948-1.988a1.6,1.6,0,0,1,1.827,1.342l2.1,13.691A1.6,1.6,0,0,1,1148.946,3687.247Z" transform="translate(-1132.051 -3670.368)" fill="#fff"/>
          </g>
        </g>
      </g>
    </g>
  </g>
</svg>
