<svg id="Grupo_210" data-name="Grupo 210" xmlns="http://www.w3.org/2000/svg" width="109.396" height="117.799" viewBox="0 0 109.396 117.799">
  <g id="Grupo_196" data-name="Grupo 196" transform="translate(58.683 102.687)">
    <path id="Trazado_219" data-name="Trazado 219" d="M1003.463,2210.484a2.13,2.13,0,0,1-2.129-2.129v-8.725H974.462v8.725a2.129,2.129,0,0,1-4.258,0V2197.5a2.13,2.13,0,0,1,2.129-2.129h31.13a2.129,2.129,0,0,1,2.128,2.129v10.854A2.129,2.129,0,0,1,1003.463,2210.484Z" transform="translate(-970.204 -2195.372)" fill="#24b34d"/>
  </g>
  <g id="Grupo_197" data-name="Grupo 197" transform="translate(64.267 68.437)">
    <path id="Trazado_220" data-name="Trazado 220" d="M976.125,2210.621a2.129,2.129,0,0,1-2.129-2.129v-7.853a15.8,15.8,0,0,1,4.661-11.25l4.03-4.031a12.873,12.873,0,0,1,9.162-3.794,2.466,2.466,0,0,0,1.761-.747l6.663-6.882a5.987,5.987,0,0,1,8.535-.071,6.01,6.01,0,0,1,.054,8.412l-12.125,12.443a2.129,2.129,0,0,1-3.049-2.972l12.125-12.442a1.737,1.737,0,0,0-.015-2.43,1.65,1.65,0,0,0-1.238-.507,1.718,1.718,0,0,0-1.227.527l-6.663,6.882a6.749,6.749,0,0,1-4.821,2.043,8.643,8.643,0,0,0-6.151,2.547l-4.032,4.031a11.576,11.576,0,0,0-3.412,8.239v7.853A2.129,2.129,0,0,1,976.125,2210.621Z" transform="translate(-973.996 -2172.112)" fill="#24b34d"/>
  </g>
  <g id="Grupo_198" data-name="Grupo 198" transform="translate(68.149 109.051)">
    <ellipse id="Elipse_32" data-name="Elipse 32" cx="1.707" cy="1.707" rx="1.707" ry="1.707" fill="#24b34d"/>
  </g>
  <g id="Grupo_199" data-name="Grupo 199" transform="translate(81.721 43.562)">
    <path id="Trazado_221" data-name="Trazado 221" d="M987.979,2218.6a2.129,2.129,0,0,1-1.545-3.594l22.831-24.072v-31.259a4.54,4.54,0,0,0-3.194,3.948l-1.8,20.37a2.129,2.129,0,0,1-4.241-.374l1.8-20.378a8.78,8.78,0,0,1,8.783-8.024h.78a2.129,2.129,0,0,1,2.129,2.129v34.436a2.123,2.123,0,0,1-.584,1.465l-23.417,24.689A2.118,2.118,0,0,1,987.979,2218.6Z" transform="translate(-985.85 -2155.219)" fill="#24b34d"/>
  </g>
  <g id="Grupo_200" data-name="Grupo 200" transform="translate(15.326 102.644)">
    <path id="Trazado_222" data-name="Trazado 222" d="M974.017,2210.452a2.129,2.129,0,0,1-2.129-2.128V2199.6h-26.87v8.725a2.129,2.129,0,0,1-4.259,0v-10.852a2.128,2.128,0,0,1,2.129-2.129h31.128a2.129,2.129,0,0,1,2.129,2.129v10.852A2.129,2.129,0,0,1,974.017,2210.452Z" transform="translate(-940.759 -2195.343)" fill="#24b34d"/>
  </g>
  <g id="Grupo_201" data-name="Grupo 201" transform="translate(8.574 68.392)">
    <path id="Trazado_223" data-name="Trazado 223" d="M970.6,2210.591a2.129,2.129,0,0,1-2.129-2.128v-7.855a11.574,11.574,0,0,0-3.412-8.236l-4.033-4.032a8.635,8.635,0,0,0-6.149-2.547,6.746,6.746,0,0,1-4.819-2.042l-6.664-6.884a1.714,1.714,0,0,0-1.228-.525,1.5,1.5,0,0,0-1.237.5,1.736,1.736,0,0,0-.015,2.43l12.125,12.442a2.129,2.129,0,1,1-3.049,2.972l-12.125-12.442a6.008,6.008,0,0,1,.054-8.411,5.985,5.985,0,0,1,8.535.069l6.663,6.882a2.46,2.46,0,0,0,1.761.747,12.878,12.878,0,0,1,9.16,3.794l4.032,4.032a15.8,15.8,0,0,1,4.659,11.247v7.855A2.128,2.128,0,0,1,970.6,2210.591Z" transform="translate(-936.174 -2172.081)" fill="#24b34d"/>
  </g>
  <g id="Grupo_202" data-name="Grupo 202" transform="translate(37.834 109.007)">
    <ellipse id="Elipse_33" data-name="Elipse 33" cx="1.707" cy="1.707" rx="1.707" ry="1.707" fill="#24b34d"/>
  </g>
  <g id="Grupo_203" data-name="Grupo 203" transform="translate(0 43.518)">
    <path id="Trazado_224" data-name="Trazado 224" d="M955.9,2218.572a2.123,2.123,0,0,1-1.545-.663l-23.417-24.69a2.132,2.132,0,0,1-.584-1.465v-34.436a2.13,2.13,0,0,1,2.129-2.129h.782a8.777,8.777,0,0,1,8.782,8.016l1.8,20.384a2.129,2.129,0,0,1-4.242.375l-1.795-20.378a4.534,4.534,0,0,0-3.2-3.939v31.258l22.833,24.074a2.128,2.128,0,0,1-1.545,3.593Z" transform="translate(-930.351 -2155.189)" fill="#24b34d"/>
  </g>
  <g id="Grupo_204" data-name="Grupo 204" transform="translate(39.486 27.961)">
    <path id="Trazado_225" data-name="Trazado 225" d="M979.123,2200.928H966.862a2.13,2.13,0,0,1-2.128-2.037l-.982-22.637h-.174a6.418,6.418,0,0,1-6.411-6.411v-17.9a7.331,7.331,0,0,1,7.323-7.324h16.984a7.331,7.331,0,0,1,7.323,7.324v17.9a6.419,6.419,0,0,1-6.413,6.411h-.15l-.982,22.637A2.13,2.13,0,0,1,979.123,2200.928ZM968.9,2196.67h8.186l.982-22.637A2.129,2.129,0,0,1,980.2,2172h2.188a2.157,2.157,0,0,0,2.156-2.154v-17.9a3.069,3.069,0,0,0-3.066-3.065H964.49a3.069,3.069,0,0,0-3.066,3.065v17.9a2.156,2.156,0,0,0,2.154,2.154h2.212a2.13,2.13,0,0,1,2.128,2.036Z" transform="translate(-957.167 -2144.624)" fill="#24b34d"/>
  </g>
  <g id="Grupo_205" data-name="Grupo 205" transform="translate(46.7 10.578)">
    <path id="Trazado_226" data-name="Trazado 226" d="M970.665,2150.019a8.6,8.6,0,1,1,8.6-8.6A8.61,8.61,0,0,1,970.665,2150.019Zm0-12.943a4.342,4.342,0,1,0,4.342,4.342A4.347,4.347,0,0,0,970.665,2137.076Z" transform="translate(-962.066 -2132.819)" fill="#24b34d"/>
  </g>
  <g id="Grupo_206" data-name="Grupo 206" transform="translate(64.308 17.381)">
    <path id="Trazado_227" data-name="Trazado 227" d="M990.785,2193.743H978.524a2.13,2.13,0,0,1-2.128-2.037l-.426-9.788a2.131,2.131,0,0,1,2.035-2.219,2.107,2.107,0,0,1,2.221,2.035l.337,7.751h8.184l.982-22.635a2.13,2.13,0,0,1,2.128-2.038h2.188a2.158,2.158,0,0,0,2.156-2.155v-17.895a3.069,3.069,0,0,0-3.066-3.066H976.153a2.129,2.129,0,1,1,0-4.259h16.982a7.333,7.333,0,0,1,7.324,7.324v17.895a6.422,6.422,0,0,1-6.414,6.413H993.9l-.984,22.635A2.13,2.13,0,0,1,990.785,2193.743Z" transform="translate(-974.024 -2137.439)" fill="#24b34d"/>
  </g>
  <g id="Grupo_207" data-name="Grupo 207" transform="translate(66.327)">
    <path id="Trazado_228" data-name="Trazado 228" d="M984,2142.833a8.6,8.6,0,1,1,8.6-8.6A8.61,8.61,0,0,1,984,2142.833Zm0-12.942a4.343,4.343,0,1,0,4.342,4.343A4.347,4.347,0,0,0,984,2129.892Z" transform="translate(-975.395 -2125.635)" fill="#24b34d"/>
  </g>
  <g id="Grupo_208" data-name="Grupo 208" transform="translate(19.801 17.381)">
    <path id="Trazado_229" data-name="Trazado 229" d="M965.734,2193.743H953.472a2.13,2.13,0,0,1-2.128-2.037l-.982-22.635h-.152a6.42,6.42,0,0,1-6.413-6.413v-17.895a7.334,7.334,0,0,1,7.324-7.324h16.984a2.129,2.129,0,0,1,0,4.259H951.122a3.069,3.069,0,0,0-3.066,3.066v17.895a2.156,2.156,0,0,0,2.154,2.155h2.19a2.13,2.13,0,0,1,2.128,2.038l.982,22.635H963.7l.334-7.751a2.13,2.13,0,0,1,4.255.184l-.424,9.788A2.13,2.13,0,0,1,965.734,2193.743Z" transform="translate(-943.798 -2137.439)" fill="#24b34d"/>
  </g>
  <g id="Grupo_209" data-name="Grupo 209" transform="translate(27.016)">
    <path id="Trazado_230" data-name="Trazado 230" d="M957.3,2142.833a8.6,8.6,0,1,1,8.6-8.6A8.61,8.61,0,0,1,957.3,2142.833Zm0-12.942a4.343,4.343,0,1,0,4.342,4.343A4.347,4.347,0,0,0,957.3,2129.892Z" transform="translate(-948.698 -2125.635)" fill="#24b34d"/>
  </g>
</svg>
