<svg xmlns="http://www.w3.org/2000/svg" width="92.637" height="116.044" viewBox="0 0 92.637 116.044">
  <g id="Grupo_472" data-name="Grupo 472" transform="translate(0 0)">
    <g id="Grupo_154" data-name="Grupo 154" transform="translate(0 18.893)">
      <path id="Trazado_131" data-name="Trazado 131" d="M1574.967,3091.988h-76.036a8.3,8.3,0,0,1-8.275-8.947l6.285-80.549a8.341,8.341,0,0,1,8.276-7.655h63.258a8.344,8.344,0,0,1,8.274,7.635l6.492,80.549a8.3,8.3,0,0,1-8.274,8.968Zm-69.751-92.957a4.128,4.128,0,0,0-4.095,3.789l-6.285,80.547a4.109,4.109,0,0,0,4.095,4.427h76.036a4.107,4.107,0,0,0,4.093-4.437l-6.493-80.549a4.129,4.129,0,0,0-4.093-3.778Z" transform="translate(-1490.631 -2994.837)" fill="#24b34d"/>
    </g>
    <g id="Grupo_155" data-name="Grupo 155" transform="translate(24.246)">
      <path id="Trazado_132" data-name="Trazado 132" d="M1548.037,3019.2a2.1,2.1,0,0,1-2.1-2.1v-22.372a8.732,8.732,0,0,0-8.724-8.722h-16.955a8.732,8.732,0,0,0-8.722,8.722v20.827a2.1,2.1,0,1,1-4.194,0v-20.827a12.931,12.931,0,0,1,12.916-12.917h16.955a12.931,12.931,0,0,1,12.917,12.917V3017.1A2.1,2.1,0,0,1,1548.037,3019.2Z" transform="translate(-1507.346 -2981.812)" fill="#24b34d"/>
    </g>
  </g>
</svg>
