<svg xmlns="http://www.w3.org/2000/svg" width="132.581" height="116.043" viewBox="0 0 132.581 116.043">
  <g id="Grupo_474" data-name="Grupo 474" transform="translate(0 0)">
    <g id="Grupo_166" data-name="Grupo 166" transform="translate(38.655 46.554)">
      <path id="Trazado_141" data-name="Trazado 141" d="M1001.153,2638.94h-50.7a1.963,1.963,0,0,1,0-3.925h49.909l37.285-35.794a11.533,11.533,0,0,0-16.158.151l-19.028,18.679a1.963,1.963,0,0,1-2.75-2.8l19.015-18.665a15.461,15.461,0,0,1,21.851.012l1.263,1.265a1.961,1.961,0,0,1-.027,2.8l-39.3,37.729A1.964,1.964,0,0,1,1001.153,2638.94Z" transform="translate(-948.492 -2592.068)" fill="#24b34d"/>
    </g>
    <g id="Grupo_167" data-name="Grupo 167" transform="translate(0 65.353)">
      <path id="Trazado_142" data-name="Trazado 142" d="M957.924,2655.719a1.963,1.963,0,0,1-1.388-3.351l11.281-11.281-31.341-31.342-11.282,11.281a1.963,1.963,0,0,1-2.775-2.776l12.669-12.669a2.018,2.018,0,0,1,2.775,0l34.118,34.118a1.963,1.963,0,0,1,0,2.775l-12.669,12.669A1.956,1.956,0,0,1,957.924,2655.719Z" transform="translate(-921.843 -2605.028)" fill="#24b34d"/>
    </g>
    <g id="Grupo_168" data-name="Grupo 168" transform="translate(20.29 56.31)">
      <path id="Trazado_143" data-name="Trazado 143" d="M1007.962,2620.554H975.8a1.963,1.963,0,1,1,0-3.925h29.989a9.283,9.283,0,0,0-9.059-7.307H983.193a6.185,6.185,0,0,1-4.4-1.82,16.214,16.214,0,0,0-11.544-4.783H960.74a19.661,19.661,0,0,0-13.992,5.8l-7.566,7.565a1.962,1.962,0,0,1-2.776-2.774l7.568-7.566a23.551,23.551,0,0,1,16.767-6.945h6.513a20.111,20.111,0,0,1,14.318,5.931,2.284,2.284,0,0,0,1.622.671h13.539a13.208,13.208,0,0,1,13.194,13.194A1.962,1.962,0,0,1,1007.962,2620.554Z" transform="translate(-935.831 -2598.794)" fill="#24b34d"/>
    </g>
    <g id="Grupo_169" data-name="Grupo 169" transform="translate(14.381 82.285)">
      <ellipse id="Elipse_11" data-name="Elipse 11" cx="2.48" cy="2.48" rx="2.48" ry="2.48" fill="#24b34d"/>
    </g>
    <g id="Grupo_170" data-name="Grupo 170" transform="translate(52.549 0)">
      <path id="Trazado_144" data-name="Trazado 144" d="M983.606,2611.042a25.534,25.534,0,1,1,25.534-25.534A25.563,25.563,0,0,1,983.606,2611.042Zm0-47.143a21.609,21.609,0,1,0,21.609,21.609A21.633,21.633,0,0,0,983.606,2563.9Z" transform="translate(-958.07 -2559.974)" fill="#24b34d"/>
    </g>
    <g id="Grupo_178" data-name="Grupo 178" transform="translate(68.252 6.05)">
      <g id="Grupo_173" data-name="Grupo 173" transform="translate(0 5.345)">
        <g id="Grupo_172" data-name="Grupo 172">
          <g id="Grupo_171" data-name="Grupo 171">
            <path id="Trazado_145" data-name="Trazado 145" d="M978.992,2596.966a11.739,11.739,0,0,1-5.026-1.031,8.853,8.853,0,0,1-3.576-2.946,8.376,8.376,0,0,1-1.488-4.166,1.963,1.963,0,0,1,1.957-2.119h1.654a1.963,1.963,0,0,1,1.942,1.681,4.047,4.047,0,0,0,1.252,2.337,4.615,4.615,0,0,0,3.285.947,5.253,5.253,0,0,0,2.32-.467,3.141,3.141,0,0,0,1.305-1.126,2.734,2.734,0,0,0,.434-1.515,2.545,2.545,0,0,0-.422-1.613,3.4,3.4,0,0,0-1.369-1.007,29.337,29.337,0,0,0-3.243-1.05,29.261,29.261,0,0,1-4.118-1.361,8.081,8.081,0,0,1-3.246-2.566,7.754,7.754,0,0,1-1.4-4.8,7.835,7.835,0,0,1,1.242-4.279,8.357,8.357,0,0,1,3.451-3.011,10.888,10.888,0,0,1,4.842-1.046,10.1,10.1,0,0,1,6.512,2.052,8.244,8.244,0,0,1,3.1,5.19,1.963,1.963,0,0,1-1.936,2.282h-1.69a1.966,1.966,0,0,1-1.917-1.538,3.293,3.293,0,0,0-.6-1.2,3.556,3.556,0,0,0-1.323-1.036,5.173,5.173,0,0,0-2.286-.45,4.5,4.5,0,0,0-2.927.926,2.437,2.437,0,0,0-.954,2.076,2.546,2.546,0,0,0,.435,1.625,3.614,3.614,0,0,0,1.414,1.059,23.911,23.911,0,0,0,3.191,1.015,32.3,32.3,0,0,1,4.146,1.384,8.005,8.005,0,0,1,3.213,2.55,7.685,7.685,0,0,1,1.4,4.762,8.007,8.007,0,0,1-1.157,4.138,8.567,8.567,0,0,1-3.332,3.129A10.482,10.482,0,0,1,978.992,2596.966Z" transform="translate(-968.896 -2567.83)" fill="#24b34d"/>
          </g>
        </g>
      </g>
      <g id="Grupo_175" data-name="Grupo 175" transform="translate(7.041)">
        <g id="Grupo_174" data-name="Grupo 174">
          <rect id="Rect치ngulo_52" data-name="Rect치ngulo 52" width="5.582" height="9.27" rx="1.353" fill="#24b34d"/>
        </g>
      </g>
      <g id="Grupo_177" data-name="Grupo 177" transform="translate(7.041 30.152)">
        <g id="Grupo_176" data-name="Grupo 176">
          <rect id="Rect치ngulo_53" data-name="Rect치ngulo 53" width="5.582" height="9.269" rx="1.353" fill="#24b34d"/>
        </g>
      </g>
    </g>
  </g>
</svg>
