<svg id="Grupo_167" data-name="Grupo 167" xmlns="http://www.w3.org/2000/svg" width="108.215" height="117.799" viewBox="0 0 108.215 117.799">
  <g id="Grupo_161" data-name="Grupo 161" transform="translate(15.477 63.348)">
    <path id="Trazado_190" data-name="Trazado 190" d="M445.218,2656.027H373.285a2.128,2.128,0,0,1-2.129-2.129v-44.722a7.609,7.609,0,0,1,7.6-7.6h60.989a7.609,7.609,0,0,1,7.6,7.6V2653.9A2.129,2.129,0,0,1,445.218,2656.027Zm-69.8-4.258h67.674v-42.593a3.345,3.345,0,0,0-3.343-3.341H378.757a3.345,3.345,0,0,0-3.343,3.341Z" transform="translate(-371.156 -2601.576)" fill="#24b34d"/>
  </g>
  <g id="Grupo_162" data-name="Grupo 162" transform="translate(0.689 113.541)">
    <path id="Trazado_191" data-name="Trazado 191" d="M464.753,2639.921H363.242a2.129,2.129,0,1,1,0-4.258H464.753a2.129,2.129,0,0,1,0,4.258Z" transform="translate(-361.113 -2635.663)" fill="#24b34d"/>
  </g>
  <g id="Grupo_163" data-name="Grupo 163" transform="translate(38.368 14.278)">
    <path id="Trazado_192" data-name="Trazado 192" d="M403.138,2603.682a10.815,10.815,0,0,1-1.391-.084,12.669,12.669,0,0,1-9.546-4.091c-6.389-6.888-5.472-20.111-5.431-20.671a2.129,2.129,0,0,1,4.247.318c-.009.119-.816,11.945,4.311,17.464a8.5,8.5,0,0,0,6.578,2.723,2.108,2.108,0,0,1,.384.035,8.7,8.7,0,0,0,6.6-2.056c3.064-2.6,4.831-7.556,5.158-14.418-6.666.438-17.221-1.5-21.852-11.635a2.129,2.129,0,0,1,3.873-1.77c5.242,11.465,19.631,8.931,19.776,8.906a2.129,2.129,0,0,1,2.518,2.092c0,9.605-2.29,16.383-6.807,20.148A13.124,13.124,0,0,1,403.138,2603.682Z" transform="translate(-386.702 -2568.251)" fill="#24b34d"/>
  </g>
  <g id="Grupo_164" data-name="Grupo 164" transform="translate(29.88)">
    <path id="Trazado_193" data-name="Trazado 193" d="M427.192,2613.087a2.13,2.13,0,0,1-2.129-2.129V2582.6a19.809,19.809,0,0,0-19.787-19.786h-.293A19.809,19.809,0,0,0,385.2,2582.6v28.359a2.129,2.129,0,1,1-4.258,0V2582.6a24.072,24.072,0,0,1,24.046-24.044h.293a24.073,24.073,0,0,1,24.046,24.044v28.359A2.13,2.13,0,0,1,427.192,2613.087Z" transform="translate(-380.937 -2558.555)" fill="#24b34d"/>
  </g>
  <g id="Grupo_165" data-name="Grupo 165" transform="translate(0 41.526)">
    <path id="Trazado_194" data-name="Trazado 194" d="M378.25,2656.87a2.122,2.122,0,0,1-1.054-.28l-9.829-5.611a13.279,13.279,0,0,1-5.573-16.949l13.872-31.352a12.053,12.053,0,0,1,11.017-7.174H399.19a4.392,4.392,0,0,0,4.387-4.386v-2.232a2.128,2.128,0,1,1,4.257,0v2.232a8.654,8.654,0,0,1-8.644,8.645H386.683a7.8,7.8,0,0,0-7.124,4.638l-13.872,31.352a9.029,9.029,0,0,0,3.79,11.527l9.83,5.613a2.129,2.129,0,0,1-1.057,3.978Z" transform="translate(-360.645 -2586.756)" fill="#24b34d"/>
  </g>
  <g id="Grupo_166" data-name="Grupo 166" transform="translate(61.025 41.526)">
    <path id="Trazado_195" data-name="Trazado 195" d="M431.673,2656.87a2.129,2.129,0,0,1-1.057-3.978l9.83-5.613a9.029,9.029,0,0,0,3.79-11.527L430.364,2604.4a7.8,7.8,0,0,0-7.125-4.638H410.733a8.655,8.655,0,0,1-8.645-8.645v-2.232a2.129,2.129,0,0,1,4.258,0v2.232a4.391,4.391,0,0,0,4.387,4.386h12.506a12.057,12.057,0,0,1,11.019,7.174l13.872,31.352a13.278,13.278,0,0,1-5.573,16.949l-9.83,5.611A2.117,2.117,0,0,1,431.673,2656.87Z" transform="translate(-402.088 -2586.756)" fill="#24b34d"/>
  </g>
</svg>
