<svg xmlns="http://www.w3.org/2000/svg" width="126.282" height="116.104" viewBox="0 0 126.282 116.104">
  <g id="Grupo_472" data-name="Grupo 472" transform="translate(-604.631 -216)">
    <g id="Grupo_211" data-name="Grupo 211" transform="translate(604.631 311.276)">
      <path id="Trazado_231" data-name="Trazado 231" d="M1562.244,2212.177a2.1,2.1,0,0,1-2.1-2.1v-14.534h-35v14.534a2.1,2.1,0,0,1-2.1,2.1h-41.309a2.1,2.1,0,1,1,0-4.2h39.211v-14.534a2.1,2.1,0,0,1,2.1-2.1h39.2a2.1,2.1,0,0,1,2.1,2.1v14.534h39.479a2.1,2.1,0,0,1,0,4.2Z" transform="translate(-1479.637 -2191.349)" fill="#24b34d"/>
    </g>
    <g id="Grupo_215" data-name="Grupo 215" transform="translate(689.022 235.441)">
      <g id="Grupo_212" data-name="Grupo 212" transform="translate(7.674 32.721)">
        <path id="Trazado_232" data-name="Trazado 232" d="M1563.868,2226.011H1546.7a2.1,2.1,0,0,1-2.1-2.013l-2.441-59.743a2.1,2.1,0,0,1,2.01-2.182,2.075,2.075,0,0,1,2.184,2.011l2.359,57.731h13.14l2.359-57.731a2.053,2.053,0,0,1,2.182-2.011,2.1,2.1,0,0,1,2.011,2.182L1565.965,2224A2.1,2.1,0,0,1,1563.868,2226.011Z" transform="translate(-1542.161 -2162.069)" fill="#24b34d"/>
      </g>
      <g id="Grupo_213" data-name="Grupo 213" transform="translate(0 21.023)">
        <path id="Trazado_233" data-name="Trazado 233" d="M1567.662,2197.183a2.1,2.1,0,0,1-.33-4.17,8.66,8.66,0,0,0,7.311-8.594v-18.769a7.338,7.338,0,0,0-7.328-7.33h-18.841a7.338,7.338,0,0,0-7.329,7.33v18.769a8.7,8.7,0,0,0,7.073,8.552,2.1,2.1,0,1,1-.778,4.123,12.9,12.9,0,0,1-10.491-12.675v-18.769a11.539,11.539,0,0,1,11.525-11.526h18.841a11.539,11.539,0,0,1,11.525,11.526v18.769A12.836,12.836,0,0,1,1568,2197.157,1.989,1.989,0,0,1,1567.662,2197.183Z" transform="translate(-1536.949 -2154.125)" fill="#24b34d"/>
      </g>
      <g id="Grupo_214" data-name="Grupo 214" transform="translate(10.919)">
        <path id="Trazado_234" data-name="Trazado 234" d="M1556.073,2159.9h-3.365a8.354,8.354,0,0,1-8.344-8.345v-3.363a8.354,8.354,0,0,1,8.344-8.345h3.365a8.354,8.354,0,0,1,8.345,8.345v3.363A8.354,8.354,0,0,1,1556.073,2159.9Zm-3.365-15.856a4.152,4.152,0,0,0-4.148,4.148v3.363a4.154,4.154,0,0,0,4.148,4.149h3.365a4.154,4.154,0,0,0,4.148-4.149v-3.363a4.152,4.152,0,0,0-4.148-4.148Z" transform="translate(-1544.364 -2139.848)" fill="#24b34d"/>
      </g>
    </g>
    <g id="Grupo_219" data-name="Grupo 219" transform="translate(604.631 235.441)">
      <g id="Grupo_216" data-name="Grupo 216" transform="translate(7.674 32.721)">
        <path id="Trazado_235" data-name="Trazado 235" d="M1506.558,2226.011H1489.39a2.1,2.1,0,0,1-2.1-2.013l-2.443-59.743a2.1,2.1,0,0,1,2.011-2.182,2.06,2.06,0,0,1,2.182,2.011l2.359,57.731h13.14l2.359-57.731a2.068,2.068,0,0,1,2.184-2.011,2.1,2.1,0,0,1,2.01,2.182L1508.655,2224A2.1,2.1,0,0,1,1506.558,2226.011Z" transform="translate(-1484.849 -2162.069)" fill="#24b34d"/>
      </g>
      <g id="Grupo_217" data-name="Grupo 217" transform="translate(0 21.023)">
        <path id="Trazado_236" data-name="Trazado 236" d="M1510.35,2197.183a2.1,2.1,0,0,1-.33-4.17,8.661,8.661,0,0,0,7.314-8.594v-18.769a7.338,7.338,0,0,0-7.332-7.33h-18.839a7.338,7.338,0,0,0-7.33,7.33v18.769a8.706,8.706,0,0,0,7.075,8.552,2.1,2.1,0,0,1-.782,4.123,12.906,12.906,0,0,1-10.49-12.675v-18.769a11.541,11.541,0,0,1,11.527-11.526H1510a11.539,11.539,0,0,1,11.527,11.526v18.769a12.838,12.838,0,0,1-10.845,12.737A1.989,1.989,0,0,1,1510.35,2197.183Z" transform="translate(-1479.637 -2154.125)" fill="#24b34d"/>
      </g>
      <g id="Grupo_218" data-name="Grupo 218" transform="translate(10.919)">
        <path id="Trazado_237" data-name="Trazado 237" d="M1498.763,2159.9H1495.4a8.354,8.354,0,0,1-8.346-8.345v-3.363a8.354,8.354,0,0,1,8.346-8.345h3.365a8.354,8.354,0,0,1,8.344,8.345v3.363A8.354,8.354,0,0,1,1498.763,2159.9Zm-3.365-15.856a4.154,4.154,0,0,0-4.149,4.148v3.363a4.154,4.154,0,0,0,4.149,4.149h3.365a4.153,4.153,0,0,0,4.148-4.149v-3.363a4.152,4.152,0,0,0-4.148-4.148Z" transform="translate(-1487.052 -2139.848)" fill="#24b34d"/>
      </g>
    </g>
    <g id="Grupo_220" data-name="Grupo 220" transform="translate(631.673 216)">
      <path id="Trazado_238" data-name="Trazado 238" d="M1542.286,2226.115h-17.074a2.1,2.1,0,0,1-2.094-1.966l-3.842-60.731-18.992-22.9a9.843,9.843,0,0,1,.586-13.248,2.1,2.1,0,0,1,1.486-.626h.009a2.1,2.1,0,0,1,1.483.613l24.674,24.61h10.455l24.675-24.61a2.1,2.1,0,0,1,1.481-.613h.01a2.1,2.1,0,0,1,1.484.626,9.84,9.84,0,0,1,.584,13.248l-18.989,22.9-3.843,60.731A2.1,2.1,0,0,1,1542.286,2226.115Zm-15.1-4.2h13.133l3.762-59.447a2.1,2.1,0,0,1,.48-1.208l19.427-23.424a5.639,5.639,0,0,0,.859-5.842l-23.516,23.454a2.1,2.1,0,0,1-1.483.613h-12.189a2.1,2.1,0,0,1-1.481-.613L1502.657,2132a5.629,5.629,0,0,0,.857,5.84l19.428,23.426a2.092,2.092,0,0,1,.479,1.208Z" transform="translate(-1498.002 -2126.645)" fill="#24b34d"/>
    </g>
    <g id="Grupo_221" data-name="Grupo 221" transform="translate(657.747 219.582)">
      <path id="Trazado_239" data-name="Trazado 239" d="M1527.417,2149.133h-3.365a8.355,8.355,0,0,1-8.343-8.346v-3.363a8.355,8.355,0,0,1,8.343-8.346h3.365a8.356,8.356,0,0,1,8.346,8.346v3.363A8.355,8.355,0,0,1,1527.417,2149.133Zm-3.365-15.859a4.152,4.152,0,0,0-4.146,4.149v3.363a4.152,4.152,0,0,0,4.146,4.149h3.365a4.154,4.154,0,0,0,4.149-4.149v-3.363a4.154,4.154,0,0,0-4.149-4.149Z" transform="translate(-1515.709 -2129.078)" fill="#24b34d"/>
    </g>
  </g>
</svg>
