<svg xmlns="http://www.w3.org/2000/svg" width="113.552" height="116.044" viewBox="0 0 113.552 116.044">
  <g id="Grupo_477" data-name="Grupo 477" transform="translate(0 0)">
    <g id="Grupo_201" data-name="Grupo 201" transform="translate(0)">
      <g id="Grupo_198" data-name="Grupo 198" transform="translate(16.787)">
        <path id="Trazado_162" data-name="Trazado 162" d="M979.571,3063.513a2.1,2.1,0,0,1-.878-.192c-.419-.193-41.8-19.945-38.534-79.526a2.1,2.1,0,0,1,2.093-1.983h74.635a2.1,2.1,0,0,1,2.064,1.73c.09.5,8.32,50.169-38.261,79.646A2.085,2.085,0,0,1,979.571,3063.513Zm-35.317-77.506c-1.088,28.48,8.55,46.806,16.938,57.233A63.709,63.709,0,0,0,979.456,3059c38.286-24.926,36.5-64.3,35.589-72.99Z" transform="translate(-939.975 -2981.812)" fill="#24b34d"/>
      </g>
      <g id="Grupo_199" data-name="Grupo 199" transform="translate(75.789 11.008)">
        <path id="Trazado_163" data-name="Trazado 163" d="M982.747,3040.876a2.1,2.1,0,0,1-.276-4.176c24.88-3.314,30.451-34.436,31.523-43.106H999.18a2.1,2.1,0,1,1,0-4.194h17.137a2.095,2.095,0,0,1,2.093,2.227c-.026.45-3.167,44.938-35.383,49.232A2.311,2.311,0,0,1,982.747,3040.876Z" transform="translate(-980.651 -2989.401)" fill="#24b34d"/>
      </g>
      <g id="Grupo_200" data-name="Grupo 200" transform="translate(0 11.008)">
        <path id="Trazado_164" data-name="Trazado 164" d="M962.419,3040.752a2.317,2.317,0,0,1-.28-.019c-32.283-4.3-33.725-48.736-33.735-49.185a2.1,2.1,0,0,1,2.1-2.147h17.138a2.1,2.1,0,0,1,0,4.194h-14.9c.724,8.53,5.068,39.665,29.958,42.981a2.1,2.1,0,0,1-.274,4.176Z" transform="translate(-928.403 -2989.401)" fill="#24b34d"/>
      </g>
    </g>
    <g id="Grupo_202" data-name="Grupo 202" transform="translate(33.308 9.452)">
      <path id="Trazado_165" data-name="Trazado 165" d="M987.772,3032.855a2.094,2.094,0,0,1-1.233-.4l-11.871-8.626-11.873,8.626a2.1,2.1,0,0,1-3.229-2.344l4.535-13.957-11.871-8.626a2.1,2.1,0,0,1,1.233-3.795h14.675l4.536-13.956a2.1,2.1,0,0,1,1.995-1.449h0a2.1,2.1,0,0,1,1.995,1.449l4.534,13.956h14.675a2.1,2.1,0,0,1,1.233,3.795l-11.873,8.626,4.534,13.957a2.1,2.1,0,0,1-1.995,2.744Zm-27.856-24.927,7.884,5.728a2.1,2.1,0,0,1,.761,2.344l-3.011,9.269,7.885-5.728a2.1,2.1,0,0,1,2.466,0l7.882,5.727L980.772,3016a2.1,2.1,0,0,1,.762-2.344l7.884-5.728h-9.745a2.1,2.1,0,0,1-1.995-1.449l-3.01-9.268-3.013,9.268a2.1,2.1,0,0,1-1.995,1.449Z" transform="translate(-951.365 -2988.328)" fill="#24b34d"/>
    </g>
    <g id="Grupo_203" data-name="Grupo 203" transform="translate(54.679 77.507)">
      <path id="Trazado_166" data-name="Trazado 166" d="M968.2,3065.264a2.1,2.1,0,0,1-2.1-2.1v-25.825a2.1,2.1,0,0,1,4.194,0v25.825A2.1,2.1,0,0,1,968.2,3065.264Z" transform="translate(-966.098 -3035.245)" fill="#24b34d"/>
    </g>
    <g id="Grupo_204" data-name="Grupo 204" transform="translate(35.573 103.331)">
      <path id="Trazado_167" data-name="Trazado 167" d="M993.237,3057.243H955.024a2.1,2.1,0,1,1,0-4.195h38.213a2.1,2.1,0,0,1,0,4.195Z" transform="translate(-952.926 -3053.048)" fill="#24b34d"/>
    </g>
    <g id="Grupo_205" data-name="Grupo 205" transform="translate(26.446 111.85)">
      <path id="Trazado_168" data-name="Trazado 168" d="M1005.2,3063.115H948.732a2.1,2.1,0,1,1,0-4.194H1005.2a2.1,2.1,0,1,1,0,4.194Z" transform="translate(-946.634 -3058.921)" fill="#24b34d"/>
    </g>
  </g>
</svg>
