<svg xmlns="http://www.w3.org/2000/svg" width="110.533" height="116.044" viewBox="0 0 110.533 116.044">
  <g id="Grupo_479" data-name="Grupo 479" transform="translate(0 0)">
    <g id="Grupo_210" data-name="Grupo 210" transform="translate(66.586 39.376)">
      <path id="Trazado_169" data-name="Trazado 169" d="M1558.46,2663.787h-20.876a2.1,2.1,0,0,1-2.092-1.949l-5.12-72.472a2.1,2.1,0,1,1,4.183-.294l4.983,70.521h16.977l5.367-70.533a2.1,2.1,0,0,1,4.183.318l-5.513,72.472A2.1,2.1,0,0,1,1558.46,2663.787Z" transform="translate(-1530.367 -2587.12)" fill="#24b34d"/>
    </g>
    <g id="Grupo_211" data-name="Grupo 211" transform="translate(82.342 67.734)">
      <path id="Trazado_170" data-name="Trazado 170" d="M1543.324,2654.979a2.1,2.1,0,0,1-2.1-2.1v-44.114a2.1,2.1,0,1,1,4.193,0v44.114A2.1,2.1,0,0,1,1543.324,2654.979Z" transform="translate(-1541.228 -2606.67)" fill="#24b34d"/>
    </g>
    <g id="Grupo_212" data-name="Grupo 212" transform="translate(57.211 24.41)">
      <path id="Trazado_171" data-name="Trazado 171" d="M1537.679,2628.555a2.031,2.031,0,0,1-.267-.017,14.642,14.642,0,0,1-12.84-14.124l-.66-20.542a16.538,16.538,0,0,1,16.529-17.069h20.247a16.538,16.538,0,0,1,16.529,17.069l-.66,20.542a14.649,14.649,0,0,1-11.794,13.955,2.1,2.1,0,0,1-.828-4.114,10.471,10.471,0,0,0,8.432-9.975l.659-20.542A12.34,12.34,0,0,0,1560.688,2581h-20.247a12.343,12.343,0,0,0-12.337,12.739l.66,20.542a10.466,10.466,0,0,0,9.176,10.1,2.1,2.1,0,0,1-.261,4.178Z" transform="translate(-1523.903 -2576.802)" fill="#24b34d"/>
    </g>
    <g id="Grupo_213" data-name="Grupo 213" transform="translate(71.737 0)">
      <path id="Trazado_172" data-name="Trazado 172" d="M1546.054,2584.245a12.135,12.135,0,1,1,12.135-12.135A12.149,12.149,0,0,1,1546.054,2584.245Zm0-20.077a7.942,7.942,0,1,0,7.94,7.942A7.951,7.951,0,0,0,1546.054,2564.168Z" transform="translate(-1533.917 -2559.974)" fill="#24b34d"/>
    </g>
    <g id="Grupo_214" data-name="Grupo 214" transform="translate(20.742 35.557)">
      <path id="Trazado_173" data-name="Trazado 173" d="M1519.956,2626.908a21.883,21.883,0,0,1-2.4-.132,21.213,21.213,0,1,1,16.471-36.962,2.1,2.1,0,1,1-2.779,3.141,17.02,17.02,0,1,0,2.015,23.367,2.1,2.1,0,1,1,3.274,2.621A21.148,21.148,0,0,1,1519.956,2626.908Z" transform="translate(-1498.761 -2584.487)" fill="#24b34d"/>
    </g>
    <g id="Grupo_215" data-name="Grupo 215" transform="translate(0 13.462)">
      <path id="Trazado_174" data-name="Trazado 174" d="M1534.51,2655.866h-13.489a2.1,2.1,0,0,1-2.1-2l-.358-8.133a34.1,34.1,0,0,1-7.729-3.229l-6.027,5.515a2.1,2.1,0,0,1-2.9-.064l-9.537-9.538a2.1,2.1,0,0,1-.064-2.9l5.542-6.056a34.169,34.169,0,0,1-3.19-7.7l-8.2-.363a2.1,2.1,0,0,1-2-2.1v-13.489a2.1,2.1,0,0,1,2-2.094l8.2-.363a34.18,34.18,0,0,1,3.19-7.7l-5.542-6.056a2.1,2.1,0,0,1,.064-2.9l9.537-9.538a2.094,2.094,0,0,1,2.9-.064l6.027,5.515a34.1,34.1,0,0,1,7.729-3.229l.358-8.133a2.1,2.1,0,0,1,2.1-2h13.489a2.1,2.1,0,0,1,2.095,2l.358,8.055a34.3,34.3,0,0,1,5.257,1.906,2.1,2.1,0,1,1-1.748,3.812,30.118,30.118,0,0,0-6-2.015,2.1,2.1,0,0,1-1.636-2.169l-.329-7.4h-9.475l-.319,7.166c.012.052.019.1.026.159a2.053,2.053,0,0,1-1.564,2.283,30.05,30.05,0,0,0-9.578,4,2.1,2.1,0,0,1-2.994-.8l-5.141-4.7-6.7,6.7,4.7,5.138a2.1,2.1,0,0,1,.84,3,30.025,30.025,0,0,0-3.961,9.549,2.1,2.1,0,0,1-2.608,1.564l-7.077.315v9.475l7.269.322c.046-.009.093-.015.141-.02a2.064,2.064,0,0,1,2.276,1.575,30.006,30.006,0,0,0,3.961,9.55,2.1,2.1,0,0,1-.841,3l-4.7,5.136,6.7,6.7,5.3-4.848c.036-.057.077-.112.119-.165a2.05,2.05,0,0,1,2.717-.5,29.975,29.975,0,0,0,9.578,4.006,2.1,2.1,0,0,1,1.623,2.283,2.315,2.315,0,0,1-.075.367l.309,6.958h9.475l.332-7.47a2.092,2.092,0,0,1,1.635-2.1,30.016,30.016,0,0,0,9.639-4,2.1,2.1,0,0,1,2.536.213l5.39,4.877a2.1,2.1,0,0,1-2.816,3.11l-4.233-3.831a34.074,34.074,0,0,1-8.024,3.332l-.358,8.055A2.1,2.1,0,0,1,1534.51,2655.866Z" transform="translate(-1484.462 -2569.255)" fill="#24b34d"/>
    </g>
  </g>
</svg>
