<svg id="Grupo_146" data-name="Grupo 146" xmlns="http://www.w3.org/2000/svg" width="100.2" height="117.591" viewBox="0 0 100.2 117.591">
  <g id="Grupo_138" data-name="Grupo 138" transform="translate(62.568 35.48)">
    <path id="Trazado_177" data-name="Trazado 177" d="M430.159,2231.842H412.172a2.124,2.124,0,0,1-2.122-2.009l-4.189-75.889a2.125,2.125,0,1,1,4.244-.233l4.077,73.879h13.962l4.08-75.848a2.126,2.126,0,1,1,4.245.228l-4.189,77.859A2.126,2.126,0,0,1,430.159,2231.842Z" transform="translate(-405.858 -2149.73)" fill="#24b34d"/>
  </g>
  <g id="Grupo_139" data-name="Grupo 139" transform="translate(75.75 67.512)">
    <path id="Trazado_178" data-name="Trazado 178" d="M416.935,2221.563a2.125,2.125,0,0,1-2.125-2.125v-45.83a2.125,2.125,0,1,1,4.25,0v45.83A2.125,2.125,0,0,1,416.935,2221.563Z" transform="translate(-414.81 -2171.484)" fill="#24b34d"/>
  </g>
  <g id="Grupo_140" data-name="Grupo 140" transform="translate(54.568 23.598)">
    <path id="Trazado_179" data-name="Trazado 179" d="M435.012,2193.126a2.126,2.126,0,0,1,0-4.251,6.8,6.8,0,0,0,6.794-6.794V2155.6a9.7,9.7,0,0,0-9.69-9.691H414.367a9.7,9.7,0,0,0-9.69,9.691v26.479a6.8,6.8,0,0,0,6.794,6.794h.922a2.126,2.126,0,0,1,0,4.251h-.922a11.058,11.058,0,0,1-11.045-11.045V2155.6a13.958,13.958,0,0,1,13.942-13.941h17.749a13.958,13.958,0,0,1,13.942,13.941v26.479A11.058,11.058,0,0,1,435.012,2193.126Z" transform="translate(-400.425 -2141.661)" fill="#24b34d"/>
  </g>
  <g id="Grupo_141" data-name="Grupo 141" transform="translate(65.099)">
    <path id="Trazado_180" data-name="Trazado 180" d="M419.646,2149.769a12.067,12.067,0,1,1,12.067-12.067A12.081,12.081,0,0,1,419.646,2149.769Zm0-19.884a7.817,7.817,0,1,0,7.817,7.818A7.827,7.827,0,0,0,419.646,2129.885Z" transform="translate(-407.577 -2125.635)" fill="#24b34d"/>
  </g>
  <g id="Grupo_142" data-name="Grupo 142" transform="translate(10.889)">
    <path id="Trazado_181" data-name="Trazado 181" d="M382.831,2149.769A12.067,12.067,0,1,1,394.9,2137.7,12.081,12.081,0,0,1,382.831,2149.769Zm0-19.884a7.817,7.817,0,1,0,7.816,7.818A7.826,7.826,0,0,0,382.831,2129.885Z" transform="translate(-370.762 -2125.635)" fill="#24b34d"/>
  </g>
  <g id="Grupo_143" data-name="Grupo 143" transform="translate(1.89 36.383)">
    <path id="Trazado_182" data-name="Trazado 182" d="M394.7,2230.539h-17.77a2.125,2.125,0,0,1-2.125-2.125v-32.568h-8.03a2.124,2.124,0,0,1-2.063-2.633l10.154-41.25a2.125,2.125,0,1,1,4.127,1.016l-9.506,38.617h7.442a2.125,2.125,0,0,1,2.125,2.125v32.568h13.52V2193.3a2.125,2.125,0,0,1,2.125-2.126h8.091l-9.2-38.205a2.126,2.126,0,0,1,4.133-.994l9.827,40.828a2.126,2.126,0,0,1-2.066,2.622h-8.664v32.991A2.125,2.125,0,0,1,394.7,2230.539Z" transform="translate(-364.65 -2150.344)" fill="#24b34d"/>
  </g>
  <g id="Grupo_144" data-name="Grupo 144" transform="translate(21.245 77.212)">
    <path id="Trazado_183" data-name="Trazado 183" d="M379.921,2217.438a2.125,2.125,0,0,1-2.126-2.125V2180.2a2.126,2.126,0,1,1,4.251,0v35.116A2.125,2.125,0,0,1,379.921,2217.438Z" transform="translate(-377.795 -2178.071)" fill="#24b34d"/>
  </g>
  <g id="Grupo_145" data-name="Grupo 145" transform="translate(0 23.598)">
    <path id="Trazado_184" data-name="Trazado 184" d="M370.691,2187.036a2.182,2.182,0,0,1-.5-.059,8.987,8.987,0,0,1-5.576-4.139,8.858,8.858,0,0,1-.934-6.875l7.7-28.522a7.827,7.827,0,0,1,7.545-5.78h15.841a7.833,7.833,0,0,1,7.542,5.763l7.757,28.522a8.851,8.851,0,0,1-.916,6.867,8.981,8.981,0,0,1-5.551,4.153,2.125,2.125,0,0,1-1.019-4.126,4.7,4.7,0,0,0,2.907-2.182,4.638,4.638,0,0,0,.479-3.6l-7.757-28.521a3.574,3.574,0,0,0-3.441-2.63H378.923a3.572,3.572,0,0,0-3.443,2.635l-7.7,28.524a4.638,4.638,0,0,0,.489,3.6,4.7,4.7,0,0,0,2.919,2.173,2.125,2.125,0,0,1-.5,4.191Z" transform="translate(-363.367 -2141.661)" fill="#24b34d"/>
  </g>
</svg>
