<svg xmlns="http://www.w3.org/2000/svg" width="99.132" height="115.583" viewBox="0 0 99.132 115.583">
  <g id="Grupo_476" data-name="Grupo 476" transform="translate(0 0)">
    <g id="Grupo_187" data-name="Grupo 187" transform="translate(21.061 4.837)">
      <path id="Trazado_152" data-name="Trazado 152" d="M379.856,3014.424a2.071,2.071,0,0,1-2.071-2.072,27.565,27.565,0,0,1,21.707-26.841,2.071,2.071,0,1,1,.862,4.051,23.4,23.4,0,0,0-18.426,22.789A2.071,2.071,0,0,1,379.856,3014.424Z" transform="translate(-377.785 -2985.465)" fill="#24b34d"/>
    </g>
    <g id="Grupo_188" data-name="Grupo 188" transform="translate(51.446 4.668)">
      <path id="Trazado_153" data-name="Trazado 153" d="M421.159,3014.365a2.071,2.071,0,0,1-2.071-2.072,23.351,23.351,0,0,0-18.69-22.842,2.072,2.072,0,0,1,.815-4.063,27.507,27.507,0,0,1,22.018,26.9A2.071,2.071,0,0,1,421.159,3014.365Z" transform="translate(-398.733 -2985.348)" fill="#24b34d"/>
    </g>
    <g id="Grupo_189" data-name="Grupo 189" transform="translate(41.586 0)">
      <path id="Trazado_154" data-name="Trazado 154" d="M400.663,3011.089h-3.625a5.11,5.11,0,0,1-5.1-5.1v-18.75a5.109,5.109,0,0,1,5.1-5.1h3.625a5.11,5.11,0,0,1,5.106,5.1v18.75A5.111,5.111,0,0,1,400.663,3011.089Zm-3.625-24.816a.962.962,0,0,0-.96.961v18.75a.963.963,0,0,0,.96.962h3.625a.964.964,0,0,0,.963-.962v-18.75a.963.963,0,0,0-.963-.961Z" transform="translate(-391.935 -2982.13)" fill="#24b34d"/>
    </g>
    <g id="Grupo_190" data-name="Grupo 190" transform="translate(18.867 31.173)">
      <path id="Trazado_155" data-name="Trazado 155" d="M434.163,3011.006H377.654a1.38,1.38,0,0,1-1.381-1.381V3005a1.38,1.38,0,0,1,1.381-1.38h56.509a1.381,1.381,0,0,1,1.381,1.38v4.625A1.381,1.381,0,0,1,434.163,3011.006Zm-55.128-2.761h53.747v-1.863H379.035Z" transform="translate(-376.273 -3003.62)" fill="#24b34d"/>
    </g>
    <g id="Grupo_191" data-name="Grupo 191" transform="translate(21.056 36.08)">
      <path id="Trazado_156" data-name="Trazado 156" d="M405.224,3037.2c-8.861,0-16.519-6.577-18.5-15.577a9.952,9.952,0,0,1-8.944-10.122,10.879,10.879,0,0,1,.41-3,2.071,2.071,0,0,1,3.983,1.137,6.759,6.759,0,0,0-.251,1.858,5.762,5.762,0,0,0,5.473,6,3.383,3.383,0,0,0,.653-.048,2.069,2.069,0,0,1,2.46,1.771c1,7.885,7.328,13.831,14.713,13.831s13.731-5.946,14.733-13.831a2.069,2.069,0,0,1,2.46-1.771,3.355,3.355,0,0,0,.631.048,5.763,5.763,0,0,0,5.473-6,6.79,6.79,0,0,0-.251-1.859,2.071,2.071,0,1,1,3.985-1.135,10.891,10.891,0,0,1,.409,2.994,9.951,9.951,0,0,1-8.921,10.119C421.763,3030.625,414.1,3037.2,405.224,3037.2Z" transform="translate(-377.782 -3007.003)" fill="#24b34d"/>
    </g>
    <g id="Grupo_192" data-name="Grupo 192" transform="translate(0 68.669)">
      <path id="Trazado_157" data-name="Trazado 157" d="M365.337,3071.641a2.071,2.071,0,0,1-2.071-2.072v-22.34a17.779,17.779,0,0,1,17.759-17.759,2.071,2.071,0,1,1,0,4.143,13.632,13.632,0,0,0-13.616,13.616v22.34A2.071,2.071,0,0,1,365.337,3071.641Z" transform="translate(-363.266 -3029.47)" fill="#24b34d"/>
    </g>
    <g id="Grupo_193" data-name="Grupo 193" transform="translate(23.724 59.361)">
      <path id="Trazado_158" data-name="Trazado 158" d="M386.08,3036.5h-4.388a2.071,2.071,0,1,1,0-4.143h4.388a7.245,7.245,0,0,0,7.237-7.237,2.071,2.071,0,0,1,4.143,0A11.393,11.393,0,0,1,386.08,3036.5Z" transform="translate(-379.621 -3023.053)" fill="#24b34d"/>
    </g>
    <g id="Grupo_194" data-name="Grupo 194" transform="translate(77.029 68.669)">
      <path id="Trazado_159" data-name="Trazado 159" d="M436.4,3071.641a2.071,2.071,0,0,1-2.071-2.072v-22.34a13.632,13.632,0,0,0-13.618-13.616H418.44a2.071,2.071,0,1,1,0-4.143h2.272a17.78,17.78,0,0,1,17.76,17.759v22.34A2.071,2.071,0,0,1,436.4,3071.641Z" transform="translate(-416.369 -3029.47)" fill="#24b34d"/>
    </g>
    <g id="Grupo_195" data-name="Grupo 195" transform="translate(57.569 59.361)">
      <path id="Trazado_160" data-name="Trazado 160" d="M416.76,3036.5h-2.427a11.392,11.392,0,0,1-11.38-11.38,2.071,2.071,0,0,1,4.143,0,7.245,7.245,0,0,0,7.237,7.237h2.427a2.071,2.071,0,1,1,0,4.143Z" transform="translate(-402.954 -3023.053)" fill="#24b34d"/>
    </g>
    <g id="Grupo_196" data-name="Grupo 196" transform="translate(16.951 65.819)">
      <path id="Trazado_161" data-name="Trazado 161" d="M436.345,3077.269a2.072,2.072,0,0,1-2.071-2.071v-43.55h-2.254v12.631a11.693,11.693,0,0,1-11.68,11.68H393.03a11.693,11.693,0,0,1-11.68-11.68v-12.631h-2.256v43.55a2.071,2.071,0,0,1-4.143,0v-45.621a2.072,2.072,0,0,1,2.071-2.072h6.4a2.071,2.071,0,0,1,2.071,2.072v14.7a7.546,7.546,0,0,0,7.537,7.537H420.34a7.546,7.546,0,0,0,7.537-7.537v-14.7a2.071,2.071,0,0,1,2.071-2.072h6.4a2.071,2.071,0,0,1,2.071,2.072V3075.2A2.071,2.071,0,0,1,436.345,3077.269Z" transform="translate(-374.952 -3027.505)" fill="#24b34d"/>
    </g>
  </g>
</svg>
