<svg xmlns="http://www.w3.org/2000/svg" width="142.52" height="110.851" viewBox="0 0 142.52 110.851">
  <g id="Grupo_485" data-name="Grupo 485" transform="translate(-1371.572 -642)">
    <path id="Trazado_196" data-name="Trazado 196" d="M274.128,5365.982v-96.194h-58.6v46.173" transform="translate(1196.822 -4615.133)" fill="none" stroke="#24b34d" stroke-linecap="round" stroke-linejoin="round" stroke-width="4"/>
    <line id="Línea_5" data-name="Línea 5" x1="138.52" transform="translate(1373.572 750.85)" fill="none" stroke="#24b34d" stroke-linecap="round" stroke-linejoin="round" stroke-width="4"/>
    <line id="Línea_6" data-name="Línea 6" y2="6.569" transform="translate(1412.346 744.281)" fill="none" stroke="#24b34d" stroke-linecap="round" stroke-linejoin="round" stroke-width="4"/>
    <path id="Trazado_197" data-name="Trazado 197" d="M220.261,5277.454V5266.8h24.271v10.656" transform="translate(1208.957 -4622.797)" fill="none" stroke="#24b34d" stroke-linecap="round" stroke-linejoin="round" stroke-width="4"/>
    <rect id="Rectángulo_63" data-name="Rectángulo 63" width="9.356" height="10.808" transform="translate(1421.695 665.89)" fill="none" stroke="#24b34d" stroke-linecap="round" stroke-linejoin="round" stroke-width="4"/>
    <rect id="Rectángulo_64" data-name="Rectángulo 64" width="9.356" height="10.808" transform="translate(1436.97 665.89)" fill="none" stroke="#24b34d" stroke-linecap="round" stroke-linejoin="round" stroke-width="4"/>
    <rect id="Rectángulo_65" data-name="Rectángulo 65" width="9.356" height="10.808" transform="translate(1452.246 665.89)" fill="none" stroke="#24b34d" stroke-linecap="round" stroke-linejoin="round" stroke-width="4"/>
    <rect id="Rectángulo_66" data-name="Rectángulo 66" width="9.356" height="10.808" transform="translate(1421.695 691.945)" fill="none" stroke="#24b34d" stroke-linecap="round" stroke-linejoin="round" stroke-width="4"/>
    <rect id="Rectángulo_67" data-name="Rectángulo 67" width="9.356" height="10.808" transform="translate(1436.97 691.945)" fill="none" stroke="#24b34d" stroke-linecap="round" stroke-linejoin="round" stroke-width="4"/>
    <rect id="Rectángulo_68" data-name="Rectángulo 68" width="9.356" height="10.808" transform="translate(1452.246 691.945)" fill="none" stroke="#24b34d" stroke-linecap="round" stroke-linejoin="round" stroke-width="4"/>
    <rect id="Rectángulo_69" data-name="Rectángulo 69" width="9.356" height="10.808" transform="translate(1421.695 717.398)" fill="none" stroke="#24b34d" stroke-linecap="round" stroke-linejoin="round" stroke-width="4"/>
    <rect id="Rectángulo_70" data-name="Rectángulo 70" width="9.356" height="10.808" transform="translate(1436.97 717.398)" fill="none" stroke="#24b34d" stroke-linecap="round" stroke-linejoin="round" stroke-width="4"/>
    <path id="Trazado_198" data-name="Trazado 198" d="M222.437,5308.087v-15.7h9.356v15.7" transform="translate(1214.533 -4557.237)" fill="none" stroke="#24b34d" stroke-linecap="round" stroke-linejoin="round" stroke-width="4"/>
    <rect id="Rectángulo_71" data-name="Rectángulo 71" width="9.356" height="10.808" transform="translate(1452.246 717.398)" fill="none" stroke="#24b34d" stroke-linecap="round" stroke-linejoin="round" stroke-width="4"/>
    <line id="Línea_7" data-name="Línea 7" y2="43.565" transform="translate(1396.663 707.286)" fill="none" stroke="#24b34d" stroke-linecap="round" stroke-linejoin="round" stroke-width="4"/>
    <path id="Trazado_199" data-name="Trazado 199" d="M208.538,5289.309l9.2,5.821,9.011-5.821" transform="translate(1178.926 -4565.128)" fill="none" stroke="#24b34d" stroke-linecap="round" stroke-linejoin="round" stroke-width="4"/>
    <path id="Trazado_200" data-name="Trazado 200" d="M209.276,5285.619l6.477,5.07,6.1-4.315" transform="translate(1180.816 -4574.583)" fill="none" stroke="#24b34d" stroke-linecap="round" stroke-linejoin="round" stroke-width="4"/>
    <path id="Trazado_201" data-name="Trazado 201" d="M238.575,5306.734a8.775,8.775,0,0,0-4.31-14.9,7.789,7.789,0,1,0-14.884-3.212c0,.17.018.341.029.514-.139-.008-.274-.022-.413-.022a8.769,8.769,0,0,0-6.956,14.122,11.673,11.673,0,1,0,13.089,19.016,10.884,10.884,0,1,0,13.445-15.515Z" transform="translate(1171.094 -4586.855)" fill="none" stroke="#24b34d" stroke-linecap="round" stroke-linejoin="round" stroke-width="4"/>
    <path id="Trazado_202" data-name="Trazado 202" d="M215.524,5294.952" transform="translate(1196.823 -4550.671)" fill="none" stroke="#24b34d" stroke-linecap="round" stroke-linejoin="round" stroke-width="4"/>
  </g>
</svg>
