<svg xmlns="http://www.w3.org/2000/svg" width="118.175" height="111.404" viewBox="0 0 118.175 111.404">
  <g id="Grupo_487" data-name="Grupo 487" transform="translate(-132.713 -822.445)">
    <circle id="Elipse_26" data-name="Elipse 26" cx="24.873" cy="24.873" r="24.873" transform="translate(138.62 877.924)" fill="none" stroke="#24b34d" stroke-linecap="round" stroke-linejoin="round" stroke-width="4"/>
    <path id="Trazado_222" data-name="Trazado 222" d="M1024.058,5294.667a34.281,34.281,0,0,1,58.881,34.064" transform="translate(-887.867 -4412.592)" fill="none" stroke="#24b34d" stroke-linecap="round" stroke-linejoin="round" stroke-width="4"/>
    <ellipse id="Elipse_27" data-name="Elipse 27" cx="9.121" cy="9.121" rx="9.121" ry="9.121" transform="translate(154.372 893.677)" fill="none" stroke="#24b34d" stroke-linecap="round" stroke-linejoin="round" stroke-width="4"/>
    <circle id="Elipse_28" data-name="Elipse 28" cx="17.101" cy="17.101" r="17.101" transform="translate(214.686 896.084)" fill="none" stroke="#24b34d" stroke-linecap="round" stroke-linejoin="round" stroke-width="4"/>
    <ellipse id="Elipse_29" data-name="Elipse 29" cx="6.077" cy="6.077" rx="6.077" ry="6.077" transform="translate(225.71 907.108)" fill="none" stroke="#24b34d" stroke-linecap="round" stroke-linejoin="round" stroke-width="4"/>
    <path id="Trazado_223" data-name="Trazado 223" d="M1027.858,5292.248v-6.925a7.43,7.43,0,0,1,7.429-7.43h21.919a4.189,4.189,0,0,1,3.245,1.537l2.774,3.376a6.2,6.2,0,0,0,4.787,2.268h46.141a3.586,3.586,0,0,1,3.586,3.586v30.167" transform="translate(-878.133 -4420.849)" fill="none" stroke="#24b34d" stroke-linecap="round" stroke-linejoin="round" stroke-width="4"/>
    <line id="Línea_19" data-name="Línea 19" x2="18.882" transform="translate(197.66 905.44)" fill="none" stroke="#24b34d" stroke-linecap="round" stroke-linejoin="round" stroke-width="4"/>
    <path id="Trazado_224" data-name="Trazado 224" d="M1069.6,5268.9h-32.148a5.076,5.076,0,0,0-5.057,4.625l-2.454,27.418" transform="translate(-872.789 -4443.896)" fill="none" stroke="#24b34d" stroke-linecap="round" stroke-linejoin="round" stroke-width="4"/>
    <line id="Línea_20" data-name="Línea 20" y1="32.046" transform="translate(168.679 825)" fill="none" stroke="#24b34d" stroke-linecap="round" stroke-linejoin="round" stroke-width="4"/>
    <line id="Línea_21" data-name="Línea 21" x1="13.985" y1="39.224" transform="translate(190.488 825)" fill="none" stroke="#24b34d" stroke-linecap="round" stroke-linejoin="round" stroke-width="4"/>
    <line id="Línea_22" data-name="Línea 22" y2="13.485" transform="translate(207.53 874.778)" fill="none" stroke="#24b34d" stroke-linecap="round" stroke-linejoin="round" stroke-width="4"/>
    <line id="Línea_23" data-name="Línea 23" y2="13.485" transform="translate(217.292 874.778)" fill="none" stroke="#24b34d" stroke-linecap="round" stroke-linejoin="round" stroke-width="4"/>
    <line id="Línea_24" data-name="Línea 24" y2="13.485" transform="translate(227.054 874.778)" fill="none" stroke="#24b34d" stroke-linecap="round" stroke-linejoin="round" stroke-width="4"/>
    <path id="Trazado_225" data-name="Trazado 225" d="M1045.473,5291.478v-11.47a4.615,4.615,0,0,1,4.616-4.615h1.257a4.615,4.615,0,0,1,4.616,4.615v11.47" transform="translate(-833.009 -4427.252)" fill="none" stroke="#24b34d" stroke-linecap="round" stroke-linejoin="round" stroke-width="4"/>
    <line id="Línea_25" data-name="Línea 25" y2="17.814" transform="translate(217.292 830.327)" fill="none" stroke="#24b34d" stroke-linecap="round" stroke-linejoin="round" stroke-width="4"/>
    <g id="Grupo_257" data-name="Grupo 257" transform="translate(163.493 874.289)">
      <line id="Línea_26" data-name="Línea 26" y2="3.635" fill="none" stroke="#24b34d" stroke-linecap="round" stroke-linejoin="round" stroke-width="4"/>
      <line id="Línea_27" data-name="Línea 27" y2="3.635" transform="translate(0 53.924)" fill="none" stroke="#24b34d" stroke-linecap="round" stroke-linejoin="round" stroke-width="4"/>
    </g>
    <g id="Grupo_258" data-name="Grupo 258" transform="translate(134.713 903.07)">
      <line id="Línea_28" data-name="Línea 28" x1="3.635" transform="translate(53.925)" fill="none" stroke="#24b34d" stroke-linecap="round" stroke-linejoin="round" stroke-width="4"/>
      <line id="Línea_29" data-name="Línea 29" x1="3.635" fill="none" stroke="#24b34d" stroke-linecap="round" stroke-linejoin="round" stroke-width="4"/>
    </g>
    <g id="Grupo_259" data-name="Grupo 259" transform="translate(148.927 878.247)">
      <line id="Línea_30" data-name="Línea 30" x1="1.84" y2="3.135" transform="translate(27.292)" fill="none" stroke="#24b34d" stroke-linecap="round" stroke-linejoin="round" stroke-width="4"/>
      <line id="Línea_31" data-name="Línea 31" x1="1.84" y2="3.135" transform="translate(0 46.509)" fill="none" stroke="#24b34d" stroke-linecap="round" stroke-linejoin="round" stroke-width="4"/>
    </g>
    <g id="Grupo_260" data-name="Grupo 260" transform="translate(138.577 888.665)">
      <line id="Línea_32" data-name="Línea 32" x1="3.147" y1="1.819" transform="translate(46.685 26.989)" fill="none" stroke="#24b34d" stroke-linecap="round" stroke-linejoin="round" stroke-width="4"/>
      <line id="Línea_33" data-name="Línea 33" x1="3.147" y1="1.819" fill="none" stroke="#24b34d" stroke-linecap="round" stroke-linejoin="round" stroke-width="4"/>
    </g>
    <g id="Grupo_261" data-name="Grupo 261" transform="translate(149.194 878.093)">
      <line id="Línea_34" data-name="Línea 34" x1="1.806" y1="3.155" transform="translate(26.792 46.797)" fill="none" stroke="#24b34d" stroke-linecap="round" stroke-linejoin="round" stroke-width="4"/>
      <line id="Línea_35" data-name="Línea 35" x1="1.806" y1="3.155" fill="none" stroke="#24b34d" stroke-linecap="round" stroke-linejoin="round" stroke-width="4"/>
    </g>
    <g id="Grupo_262" data-name="Grupo 262" transform="translate(138.343 889.077)">
      <line id="Línea_36" data-name="Línea 36" y1="1.767" x2="3.177" transform="translate(0 26.217)" fill="none" stroke="#24b34d" stroke-linecap="round" stroke-linejoin="round" stroke-width="4"/>
      <line id="Línea_37" data-name="Línea 37" y1="1.767" x2="3.177" transform="translate(47.123)" fill="none" stroke="#24b34d" stroke-linecap="round" stroke-linejoin="round" stroke-width="4"/>
    </g>
  </g>
</svg>
