<svg xmlns="http://www.w3.org/2000/svg" width="117.342" height="110.853" viewBox="0 0 117.342 110.853">
  <g id="Grupo_495" data-name="Grupo 495" transform="translate(-755.572 -1003.999)">
    <path id="Trazado_249" data-name="Trazado 249" d="M1485.409,5406.607l7.6,5.594a6.943,6.943,0,0,1,2.824,5.592v38.622a8.356,8.356,0,0,1-.392,2.572c-1.617,5.123-11.294,22.757-32.86,22.757s-30.224-17.634-31.842-22.757a8.5,8.5,0,0,1-.391-2.572v-38.622a6.948,6.948,0,0,1,2.828-5.592l9.111-5.594" transform="translate(-672.773 -4392.482)" fill="none" stroke="#24b34d" stroke-linecap="round" stroke-linejoin="round" stroke-width="4"/>
    <path id="Trazado_250" data-name="Trazado 250" d="M1510.735,5423.862s-.413,37.265-38.089,37.265c0,0-33.251-.189-33.251-23.588" transform="translate(-649.59 -4348.275)" fill="none" stroke="#24b34d" stroke-linecap="round" stroke-linejoin="round" stroke-width="4"/>
    <ellipse id="Elipse_49" data-name="Elipse 49" cx="9.768" cy="9.768" rx="9.768" ry="9.768" transform="translate(851.378 1056.052)" fill="none" stroke="#24b34d" stroke-linecap="round" stroke-linejoin="round" stroke-width="4"/>
    <ellipse id="Elipse_50" data-name="Elipse 50" cx="4.624" cy="4.624" rx="4.624" ry="4.624" transform="translate(804.024 1006)" fill="none" stroke="#24b34d" stroke-linecap="round" stroke-linejoin="round" stroke-width="4"/>
    <ellipse id="Elipse_51" data-name="Elipse 51" cx="4.624" cy="4.624" rx="4.624" ry="4.624" transform="translate(770.388 1006)" fill="none" stroke="#24b34d" stroke-linecap="round" stroke-linejoin="round" stroke-width="4"/>
  </g>
</svg>
