<svg xmlns="http://www.w3.org/2000/svg" width="130.439" height="110.851" viewBox="0 0 130.439 110.851">
  <g id="Grupo_494" data-name="Grupo 494" transform="translate(-448.713 -1004)">
    <path id="Trazado_229" data-name="Trazado 229" d="M1024.724,5439.848v-11.625a14.119,14.119,0,0,1,14.118-14.118h43.267a11.21,11.21,0,0,1-7.284,10.5L1057.708,5431v15.015" transform="translate(-560.11 -4365.815)" fill="none" stroke="#24b34d" stroke-linecap="round" stroke-linejoin="round" stroke-width="4"/>
    <ellipse id="Elipse_30" data-name="Elipse 30" cx="12.016" cy="13.791" rx="12.016" ry="13.791" transform="translate(471.78 1020.709)" fill="none" stroke="#24b34d" stroke-linecap="round" stroke-linejoin="round" stroke-width="4"/>
    <ellipse id="Elipse_31" data-name="Elipse 31" cx="9.957" cy="11.428" rx="9.957" ry="11.428" transform="translate(469.781 1078.163)" fill="none" stroke="#24b34d" stroke-linecap="round" stroke-linejoin="round" stroke-width="4"/>
    <path id="Trazado_230" data-name="Trazado 230" d="M1138.51,5480.69h4.434a4.316,4.316,0,0,0,4.317-4.317V5406.55a4.316,4.316,0,0,0-4.317-4.319H1025.138a4.318,4.318,0,0,0-4.317,4.319v69.823a4.318,4.318,0,0,0,4.317,4.317h3.529" transform="translate(-570.108 -4396.232)" fill="none" stroke="#24b34d" stroke-linecap="round" stroke-linejoin="round" stroke-width="4"/>
    <path id="Trazado_231" data-name="Trazado 231" d="M1058.605,5440.739h0a11.829,11.829,0,0,0-11.829-11.829h-11.02a11.83,11.83,0,0,0-11.832,11.829h0" transform="translate(-562.157 -4327.889)" fill="none" stroke="#24b34d" stroke-linecap="round" stroke-linejoin="round" stroke-width="4"/>
    <ellipse id="Elipse_32" data-name="Elipse 32" cx="9.957" cy="11.428" rx="9.957" ry="11.428" transform="translate(504.606 1078.163)" fill="none" stroke="#24b34d" stroke-linecap="round" stroke-linejoin="round" stroke-width="4"/>
    <path id="Trazado_232" data-name="Trazado 232" d="M1068.383,5440.739h0a11.83,11.83,0,0,0-11.832-11.829h-11.02a11.829,11.829,0,0,0-11.829,11.829h0" transform="translate(-537.109 -4327.889)" fill="none" stroke="#24b34d" stroke-linecap="round" stroke-linejoin="round" stroke-width="4"/>
    <ellipse id="Elipse_33" data-name="Elipse 33" cx="9.957" cy="11.428" rx="9.957" ry="11.428" transform="translate(539.431 1078.163)" fill="none" stroke="#24b34d" stroke-linecap="round" stroke-linejoin="round" stroke-width="4"/>
    <path id="Trazado_233" data-name="Trazado 233" d="M1078.164,5440.739h0a11.83,11.83,0,0,0-11.832-11.829h-11.019a11.832,11.832,0,0,0-11.832,11.829h0" transform="translate(-512.064 -4327.889)" fill="none" stroke="#24b34d" stroke-linecap="round" stroke-linejoin="round" stroke-width="4"/>
    <line id="Línea_46" data-name="Línea 46" x2="30.196" transform="translate(532.602 1023.227)" fill="none" stroke="#24b34d" stroke-linecap="round" stroke-linejoin="round" stroke-width="4"/>
    <line id="Línea_47" data-name="Línea 47" x2="30.196" transform="translate(532.602 1034.5)" fill="none" stroke="#24b34d" stroke-linecap="round" stroke-linejoin="round" stroke-width="4"/>
    <line id="Línea_48" data-name="Línea 48" x2="30.196" transform="translate(532.602 1045.772)" fill="none" stroke="#24b34d" stroke-linecap="round" stroke-linejoin="round" stroke-width="4"/>
    <line id="Línea_49" data-name="Línea 49" x2="15.098" transform="translate(532.602 1057.045)" fill="none" stroke="#24b34d" stroke-linecap="round" stroke-linejoin="round" stroke-width="4"/>
  </g>
</svg>
