<svg xmlns="http://www.w3.org/2000/svg" width="123.785" height="111.677" viewBox="0 0 123.785 111.677">
  <g id="Grupo_489" data-name="Grupo 489" transform="translate(-752.572 -823)">
    <path id="Trazado_203" data-name="Trazado 203" d="M257.375,5343.224l-49.992,50.245,8.916,8.914,50.142-50.095" transform="translate(547.19 -4485.341)" fill="none" stroke="#24b34d" stroke-linecap="round" stroke-linejoin="round" stroke-width="4"/>
    <path id="Trazado_204" data-name="Trazado 204" d="M214.311,5339.844s13.456,5.383,26.1,20.18l-2.582,5.116,12.217,12.214,4.876-2.735s15.493,13.857,22.723,27.481l5.421-1.81s-3.2-20.43-19.322-34.193l-.751-4.921-8.769-8.769-4.516-.21s-14.179-17.234-33.084-18.207Z" transform="translate(564.939 -4508.99)" fill="none" stroke="#24b34d" stroke-linecap="round" stroke-linejoin="round" stroke-width="4"/>
    <path id="Trazado_205" data-name="Trazado 205" d="M220.321,5369.318l7.111-7.407h13.332l4.074,4.075" transform="translate(580.334 -4437.47)" fill="none" stroke="#24b34d" stroke-linecap="round" stroke-linejoin="round" stroke-width="4"/>
    <path id="Trazado_206" data-name="Trazado 206" d="M265.465,5364.677l-7.7-5.927H243.541l-17.48,11.258" transform="translate(595.037 -4445.567)" fill="none" stroke="#24b34d" stroke-linecap="round" stroke-linejoin="round" stroke-width="4"/>
    <path id="Trazado_207" data-name="Trazado 207" d="M255.7,5351.014l-15.406,13.037-5.333,14.516" transform="translate(617.838 -4465.383)" fill="none" stroke="#24b34d" stroke-linecap="round" stroke-linejoin="round" stroke-width="4"/>
    <line id="Línea_8" data-name="Línea 8" y1="11.851" x2="10.073" transform="translate(857.54 865.187)" fill="none" stroke="#24b34d" stroke-linecap="round" stroke-linejoin="round" stroke-width="4"/>
    <line id="Línea_9" data-name="Línea 9" x1="16.295" y1="12.147" transform="translate(818.432 885.63)" fill="none" stroke="#24b34d" stroke-linecap="round" stroke-linejoin="round" stroke-width="4"/>
    <line id="Línea_10" data-name="Línea 10" x1="8.888" y2="2.666" transform="translate(821.098 906.369)" fill="none" stroke="#24b34d" stroke-linecap="round" stroke-linejoin="round" stroke-width="4"/>
    <ellipse id="Elipse_16" data-name="Elipse 16" cx="7.497" cy="7.497" rx="7.497" ry="7.497" transform="translate(848.629 840.506)" fill="none" stroke="#24b34d" stroke-linecap="round" stroke-linejoin="round" stroke-width="4"/>
    <ellipse id="Elipse_17" data-name="Elipse 17" cx="7.497" cy="7.497" rx="7.497" ry="7.497" transform="translate(797.919 894.04)" fill="none" stroke="#24b34d" stroke-linecap="round" stroke-linejoin="round" stroke-width="4"/>
  </g>
</svg>
