<svg xmlns="http://www.w3.org/2000/svg" width="108.356" height="110.85" viewBox="0 0 108.356 110.85">
  <g id="Grupo_493" data-name="Grupo 493" transform="translate(-137.713 -1004)">
    <path id="Trazado_212" data-name="Trazado 212" d="M692.662,5462.1v-40.306s0-30.45-34.826-30.45-34.829,30.45-34.829,30.45V5462.1" transform="translate(-465.945 -4385.344)" fill="none" stroke="#24b34d" stroke-linecap="round" stroke-linejoin="round" stroke-width="4"/>
    <path id="Trazado_213" data-name="Trazado 213" d="M642.564,5436.167a17.351,17.351,0,1,0,0-34.7Z" transform="translate(-415.847 -4359.412)" fill="none" stroke="#24b34d" stroke-linecap="round" stroke-linejoin="round" stroke-width="4"/>
    <path id="Trazado_214" data-name="Trazado 214" d="M635.485,5436.167a17.351,17.351,0,0,1,0-34.7Z" transform="translate(-478.423 -4359.412)" fill="none" stroke="#24b34d" stroke-linecap="round" stroke-linejoin="round" stroke-width="4"/>
    <path id="Trazado_215" data-name="Trazado 215" d="M677.387,5420.851s1.1-26.951-25.939-26.951c-26.862,0-25.943,26.951-25.943,26.951" transform="translate(-459.557 -4378.796)" fill="none" stroke="#24b34d" stroke-linecap="round" stroke-linejoin="round" stroke-width="4"/>
    <path id="Trazado_216" data-name="Trazado 216" d="M628.271,5409.726a16.571,16.571,0,0,0,16.081,10.777,16.919,16.919,0,0,0,16.255-10.777" transform="translate(-452.461 -4338.254)" fill="none" stroke="#24b34d" stroke-linecap="round" stroke-linejoin="round" stroke-width="4"/>
    <ellipse id="Elipse_18" data-name="Elipse 18" cx="2.666" cy="2.666" rx="2.666" ry="2.666" transform="translate(175.489 1048.346)" fill="none" stroke="#24b34d" stroke-linecap="round" stroke-linejoin="round" stroke-width="4"/>
    <ellipse id="Elipse_19" data-name="Elipse 19" cx="8.884" cy="8.884" rx="8.884" ry="8.884" transform="translate(183.007 1095.083)" fill="none" stroke="#24b34d" stroke-linecap="round" stroke-linejoin="round" stroke-width="4"/>
    <ellipse id="Elipse_20" data-name="Elipse 20" cx="2.666" cy="2.666" rx="2.666" ry="2.666" transform="translate(202.966 1048.346)" fill="none" stroke="#24b34d" stroke-linecap="round" stroke-linejoin="round" stroke-width="4"/>
    <path id="Trazado_217" data-name="Trazado 217" d="M661.223,5411.21s2.568,27.211-25.943,27.211" transform="translate(-434.506 -4334.454)" fill="none" stroke="#24b34d" stroke-linecap="round" stroke-linejoin="round" stroke-width="4"/>
  </g>
</svg>
