<svg xmlns="http://www.w3.org/2000/svg" width="130.525" height="111.447" viewBox="0 0 130.525 111.447">
  <g id="Grupo_486" data-name="Grupo 486" transform="translate(-1684.494 -642)">
    <path id="Trazado_251" data-name="Trazado 251" d="M621.782,5285.165a7.755,7.755,0,0,1-2.575,3.307s-3.163,2.281,0,4.486,8.9,3.825,8.9,3.825" transform="translate(1096.969 -4583.397)" fill="none" stroke="#24b34d" stroke-linecap="round" stroke-linejoin="round" stroke-width="4"/>
    <path id="Trazado_252" data-name="Trazado 252" d="M620.028,5287.591s-4.217,2.555-1.553,5.171,2.732,3.729,1.553,5.563-5.346,6.743.73,9.424,16.2,5,16.2,5,10.354,1.408,15.885,15.284" transform="translate(1096.294 -4577.18)" fill="none" stroke="#24b34d" stroke-linecap="round" stroke-linejoin="round" stroke-width="4"/>
    <path id="Trazado_253" data-name="Trazado 253" d="M623.5,5277.81s7.237-4.5,14.076,8.408" transform="translate(1111.562 -4604.178)" fill="none" stroke="#24b34d" stroke-linecap="round" stroke-linejoin="round" stroke-width="4"/>
    <path id="Trazado_254" data-name="Trazado 254" d="M623.5,5279.494s.4,3.821,8.847,3.518a2.738,2.738,0,0,1,2.415,2.212" transform="translate(1111.562 -4597.921)" fill="none" stroke="#24b34d" stroke-linecap="round" stroke-linejoin="round" stroke-width="4"/>
    <path id="Trazado_255" data-name="Trazado 255" d="M670.07,5369.59s-3.722-11.176-3.722-19.614,4.726-18.794,4.726-18.794a15.429,15.429,0,0,0,0-15.284c-4.623-7.941-12.366-11.158-11.864-19.906,0,0,6.119-24.786-4.983-24.861,0,0-17.552,8.173-19.7,26.528l-16.4,16.1a2.158,2.158,0,0,0,.37,3.383c2.134,1.47,5.147,3.972,5.147,3.972s3.384,3.453,4.046-2.285" transform="translate(1096.058 -4619.344)" fill="none" stroke="#24b34d" stroke-linecap="round" stroke-linejoin="round" stroke-width="4"/>
    <path id="Trazado_256" data-name="Trazado 256" d="M645.756,5354.278s-3.736-12.654,0-25.308,2.407-16.63,2.407-16.63a37.947,37.947,0,0,0-11.447-17.427c-8.676-7.155-2.29-21.257-2.29-21.257" transform="translate(1133.753 -4612.874)" fill="none" stroke="#24b34d" stroke-linecap="round" stroke-linejoin="round" stroke-width="4"/>
    <path id="Trazado_257" data-name="Trazado 257" d="M650.312,5354.463s-3.736-12.651,0-25.305,2.411-16.63,2.411-16.63a37.969,37.969,0,0,0-11.451-17.426c-8.676-7.159-2.29-21.256-2.29-21.256" transform="translate(1145.427 -4612.389)" fill="none" stroke="#24b34d" stroke-linecap="round" stroke-linejoin="round" stroke-width="4"/>
    <path id="Trazado_258" data-name="Trazado 258" d="M689.775,5292.709s-14.461-25.068-42.181-23.5c0,0-13.616.686-19.821,7.032" transform="translate(1122.513 -4624.453)" fill="none" stroke="#24b34d" stroke-linecap="round" stroke-linejoin="round" stroke-width="4"/>
    <path id="Trazado_259" data-name="Trazado 259" d="M659.5,5291.292a53.968,53.968,0,0,1-4.983,7.038c-1.841,1.845-3.683,2.062-6.066,2.062s-29.5-1.368-29.5-1.368" transform="translate(1099.929 -4567.699)" fill="none" stroke="#24b34d" stroke-linecap="round" stroke-linejoin="round" stroke-width="4"/>
    <line id="Línea_64" data-name="Línea 64" y2="5.83" transform="translate(1717.721 644)" fill="none" stroke="#24b34d" stroke-linecap="round" stroke-linejoin="round" stroke-width="4"/>
    <line id="Línea_65" data-name="Línea 65" y2="5.83" transform="translate(1717.721 657.867)" fill="none" stroke="#24b34d" stroke-linecap="round" stroke-linejoin="round" stroke-width="4"/>
    <line id="Línea_66" data-name="Línea 66" x1="5.83" transform="translate(1721.74 653.848)" fill="none" stroke="#24b34d" stroke-linecap="round" stroke-linejoin="round" stroke-width="4"/>
    <line id="Línea_67" data-name="Línea 67" x1="5.83" transform="translate(1707.872 653.848)" fill="none" stroke="#24b34d" stroke-linecap="round" stroke-linejoin="round" stroke-width="4"/>
    <line id="Línea_68" data-name="Línea 68" y2="5.83" transform="translate(1696.344 688.434)" fill="none" stroke="#24b34d" stroke-linecap="round" stroke-linejoin="round" stroke-width="4"/>
    <line id="Línea_69" data-name="Línea 69" y2="5.83" transform="translate(1696.344 702.301)" fill="none" stroke="#24b34d" stroke-linecap="round" stroke-linejoin="round" stroke-width="4"/>
    <line id="Línea_70" data-name="Línea 70" x1="5.83" transform="translate(1700.363 698.282)" fill="none" stroke="#24b34d" stroke-linecap="round" stroke-linejoin="round" stroke-width="4"/>
    <line id="Línea_71" data-name="Línea 71" x1="5.83" transform="translate(1686.494 698.282)" fill="none" stroke="#24b34d" stroke-linecap="round" stroke-linejoin="round" stroke-width="4"/>
  </g>
</svg>
