<svg xmlns="http://www.w3.org/2000/svg" width="71.216" height="110.851" viewBox="0 0 71.216 110.851">
  <g id="Grupo_482" data-name="Grupo 482" transform="translate(-478.713 -642)">
    <line id="Línea_11" data-name="Línea 11" x2="50.61" transform="translate(489.033 674.959)" fill="none" stroke="#24b34d" stroke-linecap="round" stroke-linejoin="round" stroke-width="4"/>
    <line id="Línea_12" data-name="Línea 12" x2="50.61" transform="translate(489.033 674.959)" fill="none" stroke="#24b34d" stroke-linecap="round" stroke-linejoin="round" stroke-width="4"/>
    <path id="Trazado_208" data-name="Trazado 208" d="M639.562,5203.529c-7.3,1.185-12.544,6.45-12.544,12.824v13.372H668.1v-13.372c0-6.565-5.574-12-13.207-12.965" transform="translate(-133.241 -4554.767)" fill="none" stroke="#24b34d" stroke-linecap="round" stroke-linejoin="round" stroke-width="4"/>
    <path id="Trazado_209" data-name="Trazado 209" d="M628.027,5210.783v9.32a13.117,13.117,0,0,0,13.118,13.115h7.665a13.117,13.117,0,0,0,13.117-13.115v-9.32Z" transform="translate(-130.656 -4535.824)" fill="none" stroke="#24b34d" stroke-linecap="round" stroke-linejoin="round" stroke-width="4"/>
    <path id="Trazado_210" data-name="Trazado 210" d="M630.569,5215.137v-9.99a3.057,3.057,0,0,1,3.056-3.057h9.018a3.057,3.057,0,0,1,3.056,3.057v9.99" transform="translate(-124.145 -4558.09)" fill="none" stroke="#24b34d" stroke-linecap="round" stroke-linejoin="round" stroke-width="4"/>
    <path id="Trazado_211" data-name="Trazado 211" d="M623.35,5270.061v-39.773s29.291-29.292,67.216,0v39.773" transform="translate(-142.637 -4519.211)" fill="none" stroke="#24b34d" stroke-linecap="round" stroke-linejoin="round" stroke-width="4"/>
    <line id="Línea_13" data-name="Línea 13" y2="27.75" transform="translate(533.746 723.101)" fill="none" stroke="#24b34d" stroke-linecap="round" stroke-linejoin="round" stroke-width="4"/>
    <line id="Línea_14" data-name="Línea 14" y2="27.75" transform="translate(494.587 723.101)" fill="none" stroke="#24b34d" stroke-linecap="round" stroke-linejoin="round" stroke-width="4"/>
  </g>
</svg>
