<svg xmlns="http://www.w3.org/2000/svg" width="111.838" height="110.852" viewBox="0 0 111.838 110.852">
  <g id="Grupo_490" data-name="Grupo 490" transform="translate(-1072.572 -823)">
    <path id="Trazado_226" data-name="Trazado 226" d="M1068.616,5378.753l-19.543,27.411h11.344l28.643-23.364h39.093s5.5,0,5.616-4.047-8.986-10.447-15.165-10.108h-68.858l-16.736-21.118h-7.077l5.841,23.251a5.587,5.587,0,0,0-4.156,5.392c0,4.38,8.761,5.393,8.761,5.393s13.816,1.46,23.026.9" transform="translate(48.639 -4474.313)" fill="none" stroke="#24b34d" stroke-linecap="round" stroke-linejoin="round" stroke-width="4"/>
    <path id="Trazado_227" data-name="Trazado 227" d="M1058.065,5359.124,1043.8,5348.79h-9.1l6.627,9.547" transform="translate(71.098 -4471.083)" fill="none" stroke="#24b34d" stroke-linecap="round" stroke-linejoin="round" stroke-width="4"/>
    <path id="Trazado_228" data-name="Trazado 228" d="M1095.551,5391.253v-55.006H1028.1v34.337" transform="translate(54.177 -4503.21)" fill="none" stroke="#24b34d" stroke-linecap="round" stroke-linejoin="round" stroke-width="4"/>
    <line id="Línea_38" data-name="Línea 38" y2="16.803" transform="translate(1095.91 825)" fill="none" stroke="#24b34d" stroke-linecap="round" stroke-linejoin="round" stroke-width="4"/>
    <line id="Línea_39" data-name="Línea 39" y2="16.803" transform="translate(1135.739 825)" fill="none" stroke="#24b34d" stroke-linecap="round" stroke-linejoin="round" stroke-width="4"/>
    <line id="Línea_40" data-name="Línea 40" x2="9.021" transform="translate(1094.613 854.545)" fill="none" stroke="#24b34d" stroke-linecap="round" stroke-linejoin="round" stroke-width="4"/>
    <line id="Línea_41" data-name="Línea 41" x2="9.021" transform="translate(1094.613 863.881)" fill="none" stroke="#24b34d" stroke-linecap="round" stroke-linejoin="round" stroke-width="4"/>
    <line id="Línea_42" data-name="Línea 42" x2="9.021" transform="translate(1111.49 854.545)" fill="none" stroke="#24b34d" stroke-linecap="round" stroke-linejoin="round" stroke-width="4"/>
    <line id="Línea_43" data-name="Línea 43" x2="9.021" transform="translate(1111.49 863.881)" fill="none" stroke="#24b34d" stroke-linecap="round" stroke-linejoin="round" stroke-width="4"/>
    <line id="Línea_44" data-name="Línea 44" x2="9.021" transform="translate(1128.367 854.545)" fill="none" stroke="#24b34d" stroke-linecap="round" stroke-linejoin="round" stroke-width="4"/>
    <line id="Línea_45" data-name="Línea 45" x2="9.021" transform="translate(1128.367 863.881)" fill="none" stroke="#24b34d" stroke-linecap="round" stroke-linejoin="round" stroke-width="4"/>
  </g>
</svg>
