<svg xmlns="http://www.w3.org/2000/svg" width="230" height="230" viewBox="0 0 230 230">
  <g id="Grupo_422" data-name="Grupo 422" transform="translate(-1563.797 -1346.797)">
    <g id="Grupo_283" data-name="Grupo 283" transform="translate(1566.797 1349.797)">
      <g id="Grupo_421" data-name="Grupo 421" transform="translate(0 0)">
        <g id="Grupo_420" data-name="Grupo 420" transform="translate(0)">
          <g id="Grupo_46" data-name="Grupo 46" transform="translate(0 0)">
            <circle id="Elipse_9" data-name="Elipse 9" cx="112" cy="112" r="112" fill="none" stroke="#24b34d" stroke-miterlimit="10" stroke-width="6"/>
          </g>
          <path id="Intersección_1" data-name="Intersección 1" d="M99.092,180.783s-22.553-.7-22.553-41.9S81.647,96.5,75.48,86.905c0,0-28.817-11.482-14.137-44.111,0,0,1.6-4.406.632-6.163s-1.91-4.153-7.56-3.544-10.579-4.294-10.579-4.294-5.371-8.405-10.69-7.174-9.963-5.026-9.963-5.026-4.125-1.827-5.219,1.264S6.752,15.685,6.752,15.685A30.23,30.23,0,0,1,0,12.834a116.034,116.034,0,0,1,12.344-11.6c1,4.579,3.6,8.462,9.147,9.773,0,0,6.936,2.48,10.948-3.757S39.806,0,39.806,0s9.144.472,2.2,7.849c0,0-5.511,1.851-7.352,5.2S40.9,17.113,40.9,17.113,53.3,12.15,48.917,21.925c0,0,2.5,4.649,7.66,3.952A14.029,14.029,0,0,1,65.567,27.9c-.082-.269.746-1.083,7.943-3.434,0,0,4.988.442,8.323,3s9.827,6.089,14.233,4.619S106.12,38,106.12,38a8.4,8.4,0,0,0,6.283.6c3.37-1.091,10.155,5.6,12.8,12.368s19.235,5.205,19.235,5.205,14.433-.825,6.33,15.686a29.657,29.657,0,0,0-5.589,16.612c-.256,10.013-14.4,11.435-14.4,11.435s-14.529,6.641-15.5,23.35c0,0-1.548,8.062-6.413,9.382s-13.263.468-13.09,10.274-5.866,23.535-2.728,27.916,8.879,7.952,10.885,6.939c0,0,3.31.373.843,3.016a3.418,3.418,0,0,1-2.572,1.173A5.6,5.6,0,0,1,99.092,180.783Z" transform="translate(30.231 22.098)" fill="rgba(0,0,0,0)" stroke="#24b34d" stroke-linecap="round" stroke-linejoin="round" stroke-width="4"/>
        </g>
      </g>
    </g>
  </g>
</svg>
