<svg xmlns="http://www.w3.org/2000/svg" width="230" height="230" viewBox="0 0 230 230">
  <g id="Grupo_281" data-name="Grupo 281" transform="translate(3 3)">
    <g id="Grupo_42" data-name="Grupo 42" transform="translate(0 0)">
      <circle id="Elipse_7" data-name="Elipse 7" cx="112" cy="112" r="112" fill="none" stroke="#24b34d" stroke-miterlimit="10" stroke-width="6"/>
      <g id="Grupo_41" data-name="Grupo 41" transform="translate(41.194 40.828)">
        <g id="Grupo_34" data-name="Grupo 34" transform="translate(0 75.671)">
          <g id="Grupo_31" data-name="Grupo 31" transform="translate(34.373)">
            <path id="Trazado_14" data-name="Trazado 14" d="M915.162,1517.354a2.023,2.023,0,0,1-2-2.307l3.322-23.26L901.1,1476.171a2.022,2.022,0,0,1,1.039-3.4l22.113-4.514,10.927-19.005a1.851,1.851,0,0,1,1.547-1.022l.125.006a2.076,2.076,0,0,1,1.865,1.078l10.427,19.668,22.29,4.032a2.021,2.021,0,0,1,1.039,3.449l-16.538,15.828,4.017,22.689a2.021,2.021,0,0,1-2.934,2.138l-20.1-10.642-20.837,10.653A1.987,1.987,0,0,1,915.162,1517.354Zm12.144-46.292a2.032,2.032,0,0,1-1.351.973l-19.359,3.952,13.47,13.677a2.034,2.034,0,0,1,.56,1.705l-2.911,20.387,18.3-9.358a2.011,2.011,0,0,1,1.865.013l17.374,9.2-3.485-19.68a2.026,2.026,0,0,1,.594-1.815l14.454-13.831-19.356-3.5a2.012,2.012,0,0,1-1.425-1.045l-9.173-17.3Z" transform="translate(-900.524 -1448.23)" fill="#24b34d"/>
          </g>
          <g id="Grupo_32" data-name="Grupo 32" transform="translate(99.714 25.492)">
            <path id="Trazado_15" data-name="Trazado 15" d="M947.436,1490.322a2.022,2.022,0,0,1,0-4.043H980.58l-6.4-6.729a2.02,2.02,0,0,1-.017-2.764l6.5-7H963.024a2.022,2.022,0,0,1,0-4.045h22.267a2.022,2.022,0,0,1,1.482,3.4l-8.356,9,8.338,8.767a2.021,2.021,0,0,1-1.463,3.415Z" transform="translate(-945.415 -1465.744)" fill="#24b34d"/>
          </g>
          <g id="Grupo_33" data-name="Grupo 33" transform="translate(0 25.492)">
            <path id="Trazado_16" data-name="Trazado 16" d="M878.93,1490.322a2.022,2.022,0,0,1-1.464-3.413l8.339-8.768-8.355-9a2.021,2.021,0,0,1,1.48-3.4H901.2a2.022,2.022,0,0,1,0,4.045H883.563l6.5,7a2.022,2.022,0,0,1-.017,2.766l-6.4,6.729h33.144a2.022,2.022,0,0,1,0,4.043Z" transform="translate(-876.909 -1465.744)" fill="#24b34d"/>
          </g>
        </g>
        <g id="Grupo_35" data-name="Grupo 35" transform="translate(87.786 30.718)">
          <path id="Trazado_17" data-name="Trazado 17" d="M965.372,1476.983a.769.769,0,0,1-.767-.8l.371-8.559a1.962,1.962,0,0,1,2-1.906h3.856a5.592,5.592,0,0,0,5.585-5.583v-31.614a7.222,7.222,0,0,0-7.214-7.212H939.214a1.98,1.98,0,1,1,0-3.961h30.01a11.159,11.159,0,0,1,11.147,11.146v31.641a9.553,9.553,0,0,1-9.543,9.542h-1.976l-.291,6.575a.766.766,0,0,1-.767.732Z" transform="translate(-937.22 -1417.346)" fill="#24b34d"/>
        </g>
        <g id="Grupo_36" data-name="Grupo 36" transform="translate(43.924 49.403)">
          <path id="Trazado_18" data-name="Trazado 18" d="M956.074,1470.945a.618.618,0,0,1-.617-.616v-28.971a7.221,7.221,0,0,0-7.214-7.212H918.26a7.221,7.221,0,0,0-7.214,7.212v28.971a.618.618,0,0,1-.617.616H907.7a.618.618,0,0,1-.617-.616v-28.971a11.187,11.187,0,0,1,11.174-11.175h30.01a11.174,11.174,0,0,1,11.147,11.175v28.971a.618.618,0,0,1-.617.616Z" transform="translate(-907.086 -1430.183)" fill="#24b34d"/>
        </g>
        <g id="Grupo_37" data-name="Grupo 37" transform="translate(9.134 30.718)">
          <path id="Trazado_19" data-name="Trazado 19" d="M895.424,1476.983a.378.378,0,0,1-.378-.361l-.353-6.946h-1.937a9.582,9.582,0,0,1-9.572-9.57v-31.587a11.186,11.186,0,0,1,11.174-11.173h30.011a1.938,1.938,0,0,1,1.4.6,1.99,1.99,0,0,1,.56,1.466,2.173,2.173,0,0,1-2.253,1.9H894.358a7.221,7.221,0,0,0-7.214,7.212v31.614a5.6,5.6,0,0,0,5.611,5.583h3.856a1.969,1.969,0,0,1,1.968,1.9l.424,8.977a.38.38,0,0,1-.379.388Z" transform="translate(-883.184 -1417.346)" fill="#24b34d"/>
        </g>
        <g id="Grupo_38" data-name="Grupo 38" transform="translate(56.771 18.686)">
          <path id="Trazado_20" data-name="Trazado 20" d="M929.34,1435.909a13.414,13.414,0,1,1,13.4-13.4A13.43,13.43,0,0,1,929.34,1435.909Zm0-22.868a9.454,9.454,0,1,0,9.441,9.467A9.476,9.476,0,0,0,929.34,1413.041Z" transform="translate(-915.912 -1409.08)" fill="#24b34d"/>
        </g>
        <g id="Grupo_39" data-name="Grupo 39" transform="translate(95.934)">
          <path id="Trazado_21" data-name="Trazado 21" d="M956.219,1423.071a13.414,13.414,0,1,1,13.427-13.4A13.415,13.415,0,0,1,956.219,1423.071Zm0-22.866a9.454,9.454,0,1,0,9.467,9.467A9.464,9.464,0,0,0,956.219,1400.2Z" transform="translate(-942.818 -1396.242)" fill="#24b34d"/>
        </g>
        <g id="Grupo_40" data-name="Grupo 40" transform="translate(26.462)">
          <path id="Trazado_22" data-name="Trazado 22" d="M908.517,1423.071a13.414,13.414,0,1,1,13.4-13.4A13.429,13.429,0,0,1,908.517,1423.071Zm0-22.866a9.454,9.454,0,1,0,9.441,9.467A9.478,9.478,0,0,0,908.517,1400.2Z" transform="translate(-895.089 -1396.242)" fill="#24b34d"/>
        </g>
      </g>
    </g>
  </g>
</svg>
