<svg xmlns="http://www.w3.org/2000/svg" width="86.762" height="86.803" viewBox="0 0 86.762 86.803">
  <g id="Grupo_507" data-name="Grupo 507" transform="translate(-522.427 -2224.643)">
    <g id="Grupo_471" data-name="Grupo 471" transform="translate(522.427 2224.643)">
      <path id="Trazado_284" data-name="Trazado 284" d="M104.65,61.005a43.381,43.381,0,1,1-43.4-43.422A43.373,43.373,0,0,1,104.65,61.005Z" transform="translate(-17.888 -17.583)" fill="#24b34d"/>
      <path id="linkedin-in-brands" d="M11.359,50.754H.838V16.875H11.359Zm-5.266-38.5A6.122,6.122,0,1,1,12.186,6.1,6.144,6.144,0,0,1,6.093,12.253Zm44.641,38.5h-10.5V34.262c0-3.93-.079-8.971-5.47-8.971-5.47,0-6.308,4.27-6.308,8.688V50.754H17.949V16.875h10.09V21.5h.147a11.055,11.055,0,0,1,9.954-5.471c10.647,0,12.6,7.011,12.6,16.118v18.61Z" transform="translate(18.72 18.71)" fill="#fff"/>
    </g>
  </g>
</svg>
