<svg xmlns="http://www.w3.org/2000/svg" width="86.782" height="86.782" viewBox="0 0 86.782 86.782">
  <g id="Grupo_505" data-name="Grupo 505" transform="translate(-312.19 -2224.899)">
    <g id="Grupo_469" data-name="Grupo 469" transform="translate(312.19 2224.899)">
      <path id="Trazado_280" data-name="Trazado 280" d="M99.6,61A43.391,43.391,0,1,1,56.222,17.6,43.395,43.395,0,0,1,99.6,61Z" transform="translate(-12.821 -17.596)" fill="#24b34d"/>
      <g id="Grupo_465" data-name="Grupo 465" transform="translate(15.84 20.739)">
        <path id="Trazado_281" data-name="Trazado 281" d="M13.648,58.923a24.694,24.694,0,0,0,11.906-2.071,20.827,20.827,0,0,0,4.763-2.837,11.489,11.489,0,0,1-4.928-1.242,11.207,11.207,0,0,1-5.446-6.067c-.248-.6-.248-.6.435-.559a9.552,9.552,0,0,0,4.183-.29A10.892,10.892,0,0,1,21.869,44.8,11.429,11.429,0,0,1,15.7,35.11c-.041-.518.1-.58.559-.352A11.558,11.558,0,0,0,20.73,36c-.725-.683-1.346-1.2-1.926-1.76A11.747,11.747,0,0,1,17,21.3c.29-.538.393-.538.787-.1a32.217,32.217,0,0,0,19.9,11.1c.808.166,1.7.186,2.526.311.559.1.621-.145.538-.6a11.408,11.408,0,0,1,19.092-10.25,1.216,1.216,0,0,0,1.263.311,21.233,21.233,0,0,0,6-2.361,1.271,1.271,0,0,0,.5-.29,11.287,11.287,0,0,1-4.8,6.274,22.282,22.282,0,0,0,6.129-1.615c.041.29-.166.456-.269.683a23.78,23.78,0,0,1-4.742,4.825,1.006,1.006,0,0,0-.414.932,33.151,33.151,0,0,1-7.869,22.26,30.907,30.907,0,0,1-19.05,10.705A32.567,32.567,0,0,1,13.9,59.047Z" transform="translate(-13.648 -18.598)" fill="#fff" fill-rule="evenodd"/>
      </g>
    </g>
  </g>
</svg>
