<svg xmlns="http://www.w3.org/2000/svg" width="86.762" height="86.761" viewBox="0 0 86.762 86.761">
  <g id="Grupo_503" data-name="Grupo 503" transform="translate(-107.713 -2224.643)">
    <g id="Grupo_467" data-name="Grupo 467" transform="translate(107.713 2224.643)">
      <path id="Trazado_275" data-name="Trazado 275" d="M89.685,60.912a43.267,43.267,0,0,1-39.633,43.194,20.04,20.04,0,0,1-3.686.228A43.381,43.381,0,1,1,89.685,60.912Z" transform="translate(-2.923 -17.573)" fill="#24b34d"/>
      <g id="Grupo_463" data-name="Grupo 463" transform="translate(27.36 11.52)">
        <path id="Trazado_276" data-name="Trazado 276" d="M25.734,29.909a5.062,5.062,0,0,1,3.914-1.367,22.827,22.827,0,0,1,5.922.808l1.7-9.09a31.9,31.9,0,0,0-10.747-1.574,17.941,17.941,0,0,0-8.966,1.905,10.123,10.123,0,0,0-4.8,4.97c-.911,1.864-1.346,5.135-1.346,9.152V38.3H4.22V48.711h7.185v32.7a43.6,43.6,0,0,0,9.4.994,20.04,20.04,0,0,0,3.686-.228V48.711h9.525V38.3H24.492V34.941C24.492,32.373,24.844,30.8,25.734,29.909Z" transform="translate(-4.22 -18.686)" fill="#fff"/>
      </g>
    </g>
  </g>
</svg>
