<svg xmlns="http://www.w3.org/2000/svg" width="86.762" height="86.803" viewBox="0 0 86.762 86.803">
  <g id="Grupo_506" data-name="Grupo 506" transform="translate(-417.309 -2224.643)">
    <g id="Grupo_470" data-name="Grupo 470" transform="translate(417.309 2224.643)">
      <path id="Trazado_282" data-name="Trazado 282" d="M104.65,61.005a43.381,43.381,0,1,1-43.4-43.422A43.373,43.373,0,0,1,104.65,61.005Z" transform="translate(-17.888 -17.583)" fill="#24b34d"/>
      <g id="Grupo_466" data-name="Grupo 466" transform="translate(20.16 20.16)">
        <path id="Trazado_283" data-name="Trazado 283" d="M59.56,18.549h-34.5c-4.1,0-6.212,2.133-6.212,6.274V59.238c0,3.955,2.174,6.129,6.026,6.129H59.56c4.017,0,6.212-2.174,6.212-6.191v-34.5C65.772,20.682,63.577,18.549,59.56,18.549Zm-3.789,5.28c4.638,0,4.638,0,4.638,4.638,0,4.556,0,4.556-4.556,4.556-4.618,0-4.618,0-4.618-4.618C51.235,23.829,51.235,23.829,55.77,23.829ZM42.332,32.857A9.08,9.08,0,1,1,33.2,41.844,9.269,9.269,0,0,1,42.332,32.857ZM60.409,57.25c-.041,2.174-.6,2.816-2.775,2.816H26.967c-2.133,0-2.754-.642-2.754-2.816,0-5.612.021-11.368-.083-17.062,0-1.615.456-1.988,1.946-1.926,2.154.145,2.195.062,1.946,2.133a14.361,14.361,0,0,0,28.058,5.632,14.285,14.285,0,0,0,.331-6.73c-.166-.808.041-.973.766-.973,3.23-.248,3.23-.311,3.23,3.044Z" transform="translate(-18.85 -18.549)" fill="#fff" fill-rule="evenodd"/>
      </g>
    </g>
  </g>
</svg>
