<svg xmlns="http://www.w3.org/2000/svg" width="230" height="230" viewBox="0 0 230 230">
  <g id="Grupo_273" data-name="Grupo 273" transform="translate(-1243.016 -1070.017)">
    <g id="Grupo_282" data-name="Grupo 282" transform="translate(1246.016 1073.017)">
      <g id="Grupo_45" data-name="Grupo 45" transform="translate(0)">
        <circle id="Elipse_8" data-name="Elipse 8" cx="112" cy="112" r="112" fill="none" stroke="#24b34d" stroke-miterlimit="10" stroke-width="6"/>
        <g id="Grupo_44" data-name="Grupo 44" transform="translate(59.099 52.342)">
          <path id="Trazado_23" data-name="Trazado 23" d="M1271.525,1499.777H1201.2a2.08,2.08,0,0,1-2.081-2.081v-43.725a7.439,7.439,0,0,1,7.431-7.431h59.628a7.439,7.439,0,0,1,7.431,7.431V1497.7A2.081,2.081,0,0,1,1271.525,1499.777Zm-68.246-4.163h66.164v-41.643a3.272,3.272,0,0,0-3.268-3.268h-59.628a3.272,3.272,0,0,0-3.268,3.268Z" transform="translate(-1183.982 -1385.104)" fill="#24b34d"/>
          <path id="Trazado_24" data-name="Trazado 24" d="M1290.36,1484.925h-99.247a2.081,2.081,0,0,1,0-4.163h99.247a2.081,2.081,0,1,1,0,4.163Z" transform="translate(-1188.358 -1370.251)" fill="#24b34d"/>
          <path id="Trazado_25" data-name="Trazado 25" d="M1230.791,1447.725a10.588,10.588,0,0,1-1.36-.082,12.385,12.385,0,0,1-9.332-4c-6.246-6.734-5.352-19.661-5.31-20.209a2.081,2.081,0,0,1,4.151.311c-.008.116-.8,11.678,4.215,17.075a8.313,8.313,0,0,0,6.433,2.663,2.162,2.162,0,0,1,.374.033,8.512,8.512,0,0,0,6.457-2.009c3-2.541,4.724-7.389,5.043-14.1-6.518.427-16.837-1.471-21.364-11.377a2.081,2.081,0,1,1,3.786-1.729c5.124,11.209,19.193,8.731,19.333,8.707a2.079,2.079,0,0,1,2.462,2.047c0,9.39-2.238,16.016-6.654,19.7A12.827,12.827,0,0,1,1230.791,1447.725Z" transform="translate(-1177.209 -1399.624)" fill="#24b34d"/>
          <path id="Trazado_26" data-name="Trazado 26" d="M1259.1,1500.213a2.082,2.082,0,0,1-1.034-3.889l9.611-5.486a8.828,8.828,0,0,0,3.705-11.27l-13.562-30.655a7.624,7.624,0,0,0-6.967-4.536h-12.227a8.461,8.461,0,0,1-8.45-8.452v-2.183a2.081,2.081,0,0,1,4.163,0v2.183a4.293,4.293,0,0,0,4.287,4.289h12.227a11.789,11.789,0,0,1,10.774,7.015l13.563,30.654a12.981,12.981,0,0,1-5.449,16.57l-9.61,5.487A2.086,2.086,0,0,1,1259.1,1500.213Z" transform="translate(-1170.505 -1391.56)" fill="#24b34d"/>
          <path id="Trazado_27" data-name="Trazado 27" d="M1205.776,1500.213a2.085,2.085,0,0,1-1.031-.274l-9.609-5.487a12.981,12.981,0,0,1-5.451-16.57l13.564-30.654a11.787,11.787,0,0,1,10.772-7.015h12.228a4.294,4.294,0,0,0,4.289-4.289v-2.183a2.082,2.082,0,0,1,4.163,0v2.183a8.462,8.462,0,0,1-8.452,8.452h-12.228a7.621,7.621,0,0,0-6.965,4.536l-13.564,30.655a8.831,8.831,0,0,0,3.707,11.27l9.61,5.486a2.081,2.081,0,0,1-1.033,3.889Z" transform="translate(-1188.562 -1391.56)" fill="#24b34d"/>
          <g id="Grupo_43" data-name="Grupo 43" transform="translate(34.358)">
            <path id="Trazado_28" data-name="Trazado 28" d="M1247.394,1430.272a2.254,2.254,0,0,1-2.253-2.254c0-12.775-4.992-19.812-14.056-19.812-6.544,0-14.054,2.253-14.054,19.812a2.254,2.254,0,0,1-4.509,0c0-16.138,6.245-24.32,18.563-24.32,11.624,0,18.563,9.093,18.563,24.32A2.255,2.255,0,0,1,1247.394,1430.272Z" transform="translate(-1212.522 -1403.697)" fill="#24b34d"/>
          </g>
        </g>
      </g>
    </g>
  </g>
</svg>
